<?xml version="1.0" encoding="utf-8"?>
<!-- Generator: Adobe Illustrator 26.4.1, SVG Export Plug-In . SVG Version: 6.00 Build 0)  -->
<svg version="1.1" id="Layer_1" xmlns="http://www.w3.org/2000/svg" xmlns:xlink="http://www.w3.org/1999/xlink" x="0px" y="0px"
	 viewBox="0 0 1000 1000" style="enable-background:new 0 0 1000 1000;" xml:space="preserve">
<g>
	<path d="M104,347.24h46.79c10.26,0,19,1.56,26.23,4.69c7.23,3.14,13.14,7.32,17.74,12.54c4.61,5.23,7.9,11.23,9.9,18.02
		c1.98,6.79,2.98,13.85,2.98,21.17v8.15c0,6.05-0.48,11.18-1.41,15.34c-0.95,4.19-2.36,7.85-4.24,10.99
		c-1.89,3.14-4.2,5.91-6.91,8.31c-2.72,2.41-5.87,4.65-9.43,6.74c7.54,3.55,13.09,8.84,16.65,15.83c3.56,7.01,5.34,16.35,5.34,28.06
		v12.52c0,19.66-4.77,34.7-14.29,45.16c-9.52,10.44-24.76,15.66-45.7,15.66H104V347.24z M136.03,438.78h14.45
		c10.66,0,17.84-2.67,21.51-8.01c3.67-5.33,5.51-13.1,5.51-23.35c0-10.04-2.05-17.56-6.12-22.57c-4.09-5.03-11.48-7.53-22.16-7.53
		h-13.19V438.78z M136.03,538.46h13.81c6.49,0,11.57-0.95,15.24-2.82c3.65-1.88,6.43-4.5,8.33-7.83c1.88-3.34,3.02-7.32,3.45-11.92
		c0.41-4.6,0.64-9.61,0.64-15.04c0-5.65-0.32-10.57-0.95-14.75c-0.64-4.17-1.94-7.68-3.94-10.51c-1.98-2.8-4.76-4.95-8.31-6.43
		c-3.58-1.45-8.28-2.19-14.14-2.19h-14.14V538.46z"/>
	<polygon points="267.3,417.16 299.33,383.41 299.33,570.42 267.3,570.42 	"/>
	<polygon points="299.32,362.25 267.29,396 267.29,347.2 299.32,347.2 	"/>
	<polygon points="609.12,417.16 641.15,383.41 641.15,570.42 609.12,570.42 	"/>
	<polygon points="641.14,362.25 609.1,396 609.1,347.2 641.14,347.2 	"/>
	<polygon points="863.97,417.16 896,383.41 896,570.42 863.97,570.42 	"/>
	<polygon points="896,362.25 863.95,396 863.95,347.2 896,347.2 	"/>
	<path d="M358.99,347.25h51.5c37.68,0,56.52,21.83,56.52,65.5c0,12.96-2.03,24.1-6.12,33.39c-4.09,9.3-11.26,16.77-21.52,22.42
		l34.56,101.88h-33.92l-29.83-95.3h-19.16v95.3h-32.03V347.25z M391.02,446.92h18.2c5.66,0,10.16-0.79,13.5-2.36
		c3.36-1.57,5.92-3.81,7.71-6.74c1.78-2.93,2.98-6.53,3.6-10.82c0.64-4.28,0.95-9.25,0.95-14.89s-0.31-10.6-0.95-14.89
		c-0.62-4.28-1.93-7.94-3.91-10.97c-2.01-3.02-4.78-5.27-8.33-6.74c-3.55-1.45-8.28-2.19-14.14-2.19h-16.64V446.92z"/>
	<polygon points="700.97,347.24 733,347.24 733,449.11 733.63,449.11 780.42,347.24 812.45,347.24 768.79,436.58 820.61,570.43 
		786.69,570.43 750.27,471.38 733,503.66 733,570.43 700.97,570.43 	"/>
	<path d="M485.67,447.97c6.91,0,8.43-3.33,9.82-7.14h6.01v56.74h-8.93V454.3h-6.91V447.97z"/>
	<path d="M562.81,448.3c-2.85,0-4.63,1.54-4.63,5.6v6.06h-8.46v-5.51c0-9.08,4.56-14.27,13.33-14.27c8.76,0,13.32,5.18,13.32,14.27
		c0,17.84-17.79,24.48-17.79,33.81c0,0.39,0,0.8,0.08,1.22h16.88v8.1h-25.82v-6.97c0-16.69,17.71-19.45,17.71-35.83
		C567.43,449.68,565.64,448.3,562.81,448.3"/>
	<polygon points="541.43,463.44 517.64,487.19 513.99,483.53 537.78,459.8 	"/>
	<path d="M336.68,652.55v-28.26h9.56c9.06,0,13.55,6.28,13.55,14.08c0,8.56-5.26,14.18-13.55,14.18H336.68z M346.24,626.76h-6.82
		v23.34h6.82c7.06,0,10.77-5.07,10.77-11.71C357.01,631.61,353.13,626.76,346.24,626.76"/>
	<path d="M371.51,638.42c0-7.53,5.73-14.33,13.31-14.33c7.89,0,13.23,7.28,13.23,14.37c0,7.53-5.69,14.29-13.27,14.29
		C376.89,652.75,371.51,645.66,371.51,638.42 M384.78,650.25c6.41,0,10.5-6.01,10.5-11.83c0-6.13-4.35-11.78-10.5-11.78
		c-6.41,0-10.48,5.92-10.48,11.78C374.3,644.55,378.56,650.25,384.78,650.25 M380.68,616.17h2.32v3.74h-2.32V616.17z M386.62,616.17
		h2.32v3.74h-2.32V616.17z"/>
	<polygon points="414.2,629.46 414.2,652.55 411.44,652.55 411.44,624.29 413.59,624.29 432.34,647.82 432.34,624.33 435.09,624.33 
		435.09,652.55 432.71,652.55 	"/>
	<polygon points="469.3,650.09 469.3,652.55 450.26,652.55 450.26,624.29 468.93,624.29 468.93,626.75 453.02,626.75 453.02,636.94 
		466.9,636.94 466.9,639.3 453.02,639.3 453.02,650.09 	"/>
	<path d="M482.71,652.55v-28.27h11.92c4.91,0,8.42,4.51,8.42,8.89c0,4.09-2.55,7.72-6.35,8.47l6.98,10.91h-3.15l-6.7-10.43h-8.37
		v10.43H482.71z M485.47,639.65h9.29c3.36,0,5.51-3.14,5.51-6.48c0-3.43-2.66-6.41-5.75-6.41h-9.04V639.65z"/>
	<path d="M551.85,629.59c-1.59-1.8-4.38-3.03-7.74-3.03c-5.01,0-7.22,2.03-7.22,5.26c0,3.34,2.44,4.21,7.89,5.4
		c6.03,1.27,9.78,2.88,9.78,7.93c0,5.22-4.28,7.64-10.17,7.64c-4.43,0-8.25-1.39-11.36-4.09l1.33-2.28
		c2.1,2.15,5.77,3.91,10.07,3.91c4.5,0,7.2-1.63,7.2-4.9c0-3.47-2.9-4.59-8.56-5.86c-5.91-1.36-9.02-2.79-9.02-7.37
		c0-5.25,4.15-8.12,10.09-8.12c3.71,0,6.66,1.21,9.02,3.27L551.85,629.59z"/>
	<polygon points="589.95,624.29 589.95,652.56 587.16,652.56 587.16,639.33 570.37,639.33 570.37,652.56 567.61,652.56 
		567.61,624.29 570.37,624.29 570.37,636.87 587.16,636.87 587.16,624.29 	"/>
	<path d="M603.3,638.42c0-7.53,5.73-14.33,13.32-14.33c7.89,0,13.23,7.28,13.23,14.37c0,7.53-5.7,14.29-13.28,14.29
		C608.68,652.75,603.3,645.65,603.3,638.42 M616.57,650.24c6.43,0,10.5-6.01,10.5-11.82c0-6.13-4.34-11.78-10.5-11.78
		c-6.41,0-10.5,5.93-10.5,11.78C606.07,644.55,610.36,650.24,616.57,650.24"/>
	<path d="M643.23,652.55v-28.27h11.73c4.86,0,8.38,4.51,8.38,8.89c0,4.61-3.28,8.95-8.14,8.95h-9.21v10.43H643.23z M645.99,639.65
		h9.04c3.36,0,5.51-3.06,5.51-6.48c0-3.54-2.63-6.41-5.74-6.41h-8.81V639.65z"/>
</g>
</svg>
