<svg width="78" height="46" viewBox="0 0 78 46" fill="none" xmlns="http://www.w3.org/2000/svg">
<g clip-path="url(#clip0_1_877)">
<path d="M39.2398 46C38.7284 45.8986 38.2257 45.7803 37.7554 45.5357C36.1879 44.7216 35.311 42.9274 35.6387 41.1729C35.9719 39.3874 37.4228 38.0585 39.1955 37.8584C41.5341 37.5943 43.4882 39.3857 43.6847 41.488C43.8894 43.6765 42.3969 45.6366 40.2306 45.9534C40.169 45.9626 40.1096 45.9843 40.0492 46H39.2398Z" fill="white"/>
<path d="M0 17.2612C0 11.6633 0 6.06543 0 0.467022C0 0.160761 0.15353 0.00762987 0.460589 0.00762987C4.48062 0.00762987 8.50066 -0.012438 12.5202 0.0141384C15.6433 0.0347487 18.3134 1.17753 20.4398 3.48968C22.0181 5.20576 22.9355 7.24564 23.1704 9.57894C23.4031 11.8938 22.9717 14.0709 21.7913 16.0847C21.6985 16.2426 21.6958 16.3456 21.827 16.4828C22.5586 17.2503 23.178 18.1013 23.6569 19.0499C24.4744 20.6684 24.8427 22.3823 24.7952 24.2009C24.7304 26.6898 23.9031 28.8832 22.3178 30.7804C20.5818 32.8583 18.3555 34.0835 15.686 34.4935C15.2686 34.5575 14.8469 34.5819 14.4235 34.5819C9.75607 34.5798 5.08862 34.5803 0.421172 34.5803C0.141111 34.5803 0.000719952 34.4411 0 34.1627C0 28.529 0 22.8948 0 17.2612ZM11.4278 21.4049C10.4391 21.4049 9.45045 21.4136 8.46232 21.3995C8.18586 21.3957 8.10918 21.4895 8.11134 21.7585C8.12214 23.2023 8.12268 24.6461 8.11134 26.0894C8.10918 26.3633 8.19342 26.4441 8.46502 26.4425C10.3614 26.4322 12.2577 26.4365 14.1541 26.4371C14.4079 26.4371 14.6562 26.3997 14.8971 26.3243C16.0807 25.956 16.8366 24.7872 16.6682 23.5885C16.4894 22.3177 15.4624 21.4136 14.1784 21.406C13.2615 21.4006 12.3452 21.4049 11.4283 21.4049H11.4278ZM8.1162 10.6962C8.1162 11.4274 8.12538 12.1585 8.11134 12.8896C8.10594 13.1537 8.19936 13.2286 8.45422 13.2264C9.84787 13.2167 11.241 13.2242 12.6346 13.221C13.9732 13.2177 15.0963 12.0999 15.1141 10.7597C15.1325 9.38206 14.0353 8.21053 12.6811 8.1948C11.261 8.17853 9.84031 8.1948 8.41966 8.18612C8.17992 8.18449 8.10864 8.27073 8.11188 8.50287C8.12268 9.23399 8.11566 9.96511 8.11566 10.6962H8.1162Z" fill="white"/>
<path d="M27.1418 22.4018C27.0916 15.6947 32.4697 9.84522 39.6301 9.82895C46.5962 9.81322 52.1087 15.4691 52.1497 22.3248C52.1913 29.2043 46.6189 35.0012 39.5426 34.9513C32.6198 34.9025 27.0954 29.2113 27.1418 22.4018ZM35.6241 22.3926C35.6241 24.6261 37.4152 26.4343 39.6296 26.4365C41.8629 26.4387 43.6491 24.6347 43.6642 22.3898C43.6777 20.3722 42.1021 18.3654 39.6533 18.3481C37.2996 18.3312 35.5917 20.2762 35.6241 22.3926Z" fill="white"/>
<path d="M73.9465 21.9201C73.9465 22.8953 73.9341 23.8705 73.9508 24.8452C73.9632 25.5595 74.0378 26.2673 74.3272 26.9355C74.6911 27.7756 75.5324 28.2513 76.4433 28.1466C76.8985 28.0946 77.3564 28.0718 77.8035 27.9611C77.9277 27.9302 77.9941 27.9763 77.9919 28.1097C77.9908 28.1727 77.9935 28.2361 77.9935 28.2996C77.9935 30.0601 77.9871 31.8207 78 33.5812C78.0022 33.8606 77.9066 34.0021 77.6604 34.1155C76.2673 34.7566 74.8202 35.044 73.2829 34.9177C72.1333 34.8233 71.0253 34.6036 69.9756 34.1122C68.2898 33.3236 67.1062 32.061 66.4216 30.3291C66.009 29.2856 65.8287 28.1965 65.8292 27.0733C65.8319 20.1211 65.8303 13.1689 65.8303 6.21728C65.8303 5.94753 65.9631 5.78464 66.2288 5.7286C68.6905 5.20249 71.1527 4.67639 73.6144 4.14974C73.9335 4.0814 73.9416 4.08682 73.9416 4.43069C73.9416 6.26338 73.9416 8.09607 73.9416 9.9293C73.9416 10.2932 73.9438 10.2954 74.298 10.2959C75.4044 10.297 76.5103 10.2959 77.6166 10.2965C77.9795 10.2965 77.9876 10.3041 77.9881 10.6523C77.9887 13.144 77.9887 15.6362 77.9881 18.1279C77.9881 18.4636 77.9736 18.4782 77.6382 18.4788C76.5232 18.4799 75.4076 18.4874 74.2932 18.4739C74.0172 18.4706 73.9379 18.5628 73.9416 18.8324C73.9546 19.8613 73.947 20.8907 73.947 21.9201H73.9465Z" fill="white"/>
<path d="M62.7152 17.3154C62.7152 22.8943 62.7152 28.4731 62.7152 34.0526C62.7152 34.1518 62.712 34.2511 62.7142 34.3503C62.7179 34.5082 62.6445 34.5803 62.4863 34.5797C59.9236 34.5787 57.361 34.5787 54.7983 34.5797C54.6412 34.5797 54.5645 34.5114 54.5661 34.353C54.5672 34.263 54.5645 34.1724 54.5645 34.0824C54.5645 23.4659 54.5645 12.85 54.565 2.23352C54.565 1.73941 54.5132 1.76653 55.0224 1.6586C57.4673 1.13955 59.9107 0.615069 62.3545 0.0933032C62.7131 0.0168282 62.7147 0.0189977 62.7147 0.388898C62.7147 6.03124 62.7147 11.673 62.7147 17.3154H62.7152Z" fill="white"/>
</g>
<defs>
<clipPath id="clip0_1_877">
<rect width="78" height="46" fill="white"/>
</clipPath>
</defs>
</svg>
