<svg  viewBox="0 0 19 29" fill="none" xmlns="http://www.w3.org/2000/svg">
<g clip-path="url(#clip0_1_867)">
<path d="M10.2817 0C10.8524 0.11879 11.4366 0.158892 11.9968 0.336699C15.833 1.55638 18.1643 4.15918 18.8624 8.18368C19.3168 10.8054 18.6217 13.2062 17.2479 15.4322C16.1653 17.1875 14.8697 18.7825 13.6262 20.4161C13.4444 20.6552 13.2656 20.8965 13.0756 21.1281C12.9497 21.2816 12.9676 21.3286 13.168 21.3596C14.2424 21.5276 15.2944 21.7878 16.3024 22.21C16.9662 22.4877 17.5951 22.8274 18.1337 23.3208C19.2692 24.3619 19.2684 25.7102 18.1248 26.7468C17.2725 27.5193 16.2391 27.9385 15.1632 28.2532C12.8261 28.9372 10.4367 29.0953 8.01906 28.9508C6.3159 28.8494 4.64552 28.5786 3.03624 27.9816C2.25543 27.6918 1.51636 27.3248 0.888287 26.7581C-0.27621 25.7064 -0.27323 24.343 0.897227 23.2943C1.68771 22.5861 2.64062 22.1926 3.62631 21.8726C4.34155 21.6403 5.07541 21.47 5.81896 21.3634C6.07674 21.3263 6.03055 21.2544 5.91209 21.1001C4.80943 19.6647 3.67474 18.2544 2.63242 16.7722C1.64674 15.3709 0.782491 13.9068 0.333232 12.2218C-1.10022 6.84369 2.24128 1.29837 7.59811 0.187643C7.96914 0.110468 8.34613 0.0620434 8.72014 0C9.24093 0 9.76096 0 10.2817 0ZM9.4473 1.13191C8.93024 1.13948 8.34688 1.1932 7.77469 1.32031C2.84998 2.41515 -0.015446 7.53222 1.56031 12.4011C2.0431 13.8917 2.87009 15.1855 3.7783 16.4302C5.59172 18.9164 7.55639 21.2862 9.3199 23.8103C9.49349 24.0585 9.55682 23.9843 9.69242 23.7936C10.9068 22.0776 12.1965 20.4198 13.4772 18.7545C14.5233 17.3941 15.5797 16.042 16.4477 14.5522C17.5541 12.6538 18.0883 10.6299 17.7701 8.41218C17.1734 4.25073 13.6575 1.14553 9.4473 1.13191ZM9.47114 27.8696C11.4529 27.8363 13.396 27.6456 15.2735 27.0131C16.0774 26.7422 16.8634 26.4222 17.4803 25.801C17.9959 25.2812 17.9855 24.7742 17.4654 24.2559C17.11 23.9011 16.6846 23.6529 16.2368 23.4395C14.9882 22.8456 13.6545 22.5793 12.3038 22.3742C12.1548 22.3515 12.0862 22.4295 12.011 22.5331C11.3628 23.4297 10.7109 24.3233 10.0627 25.2206C9.6872 25.7404 9.3132 25.7382 8.93769 25.2169C8.29696 24.3263 7.65101 23.4403 7.00879 22.5505C6.92981 22.4408 6.86201 22.3523 6.69662 22.378C6 22.4862 5.30339 22.5952 4.62317 22.7805C3.61737 23.0552 2.63019 23.382 1.78755 24.035C0.932244 24.6971 0.934479 25.3833 1.79277 26.0499C2.33664 26.4721 2.95726 26.7437 3.59949 26.9677C5.50828 27.6328 7.48636 27.831 9.47114 27.8704V27.8696Z" fill="white"/>
<path d="M13.4033 9.62885C13.4033 11.8314 11.6599 13.5936 9.48509 13.5913C7.33342 13.589 5.59673 11.817 5.59747 9.62658C5.59822 7.42253 7.33789 5.66337 9.51489 5.66412C11.6658 5.66564 13.4033 7.43766 13.4033 9.62885ZM12.2887 9.63717C12.2939 8.0929 11.031 6.80285 9.50968 6.79604C7.99054 6.78923 6.71801 8.07322 6.7128 9.61826C6.70758 11.1618 7.96968 12.4533 9.49105 12.4601C11.0094 12.467 12.2835 11.1807 12.2887 9.63717Z" fill="white"/>
<path d="M16.7492 9.39506C16.7492 9.4798 16.7507 9.56454 16.7492 9.64929C16.7403 10.0094 16.5093 10.2531 16.183 10.247C15.8701 10.2417 15.6436 10.0026 15.6376 9.6561C15.6242 8.88661 15.5087 8.13528 15.2308 7.41875C14.558 5.68683 13.3637 4.48001 11.6554 3.7998C11.2761 3.64923 11.1145 3.38593 11.2113 3.07344C11.3223 2.71404 11.6464 2.57407 12.0435 2.72993C13.9352 3.47218 15.3023 4.78266 16.1375 6.6591C16.5242 7.52695 16.7179 8.44247 16.75 9.39355L16.7492 9.39506Z" fill="white"/>
<path d="M9.55516 3.39649C9.23554 3.39876 8.99638 3.15513 8.99787 2.82902C8.99936 2.50367 9.24075 2.26231 9.56038 2.26685C9.86212 2.27139 10.1043 2.51502 10.1102 2.81994C10.1162 3.13621 9.86733 3.39422 9.55516 3.39574V3.39649Z" fill="white"/>
</g>
<defs>
<clipPath id="clip0_1_867">
<rect width="19" height="29" fill="white"/>
</clipPath>
</defs>
</svg>
