<svg width="48" height="48" viewBox="0 0 48 48" fill="none" xmlns="http://www.w3.org/2000/svg">
<g clip-path="url(#clip0_1_2096)">
<path d="M0.0274048 16.1C0.0274048 10.4051 0.0274048 7.55764 1.15327 5.39026C2.10203 3.56382 3.59123 2.07462 5.41766 1.12587C7.58504 0 10.4325 0 16.1274 0H31.9274C37.6223 0 40.4698 0 42.6371 1.12587C44.4636 2.07462 45.9528 3.56382 46.9015 5.39026C48.0274 7.55764 48.0274 10.4051 48.0274 16.1V31.9C48.0274 37.5949 48.0274 40.4424 46.9015 42.6097C45.9528 44.4362 44.4636 45.9254 42.6371 46.8741C40.4698 48 37.6223 48 31.9274 48H16.1274C10.4325 48 7.58504 48 5.41766 46.8741C3.59123 45.9254 2.10203 44.4362 1.15327 42.6097C0.0274048 40.4424 0.0274048 37.5949 0.0274048 31.9V16.1Z" fill="url(#paint0_radial_1_2096)"/>
<path d="M0.0274048 16.1C0.0274048 10.4051 0.0274048 7.55764 1.15327 5.39026C2.10203 3.56382 3.59123 2.07462 5.41766 1.12587C7.58504 0 10.4325 0 16.1274 0H31.9274C37.6223 0 40.4698 0 42.6371 1.12587C44.4636 2.07462 45.9528 3.56382 46.9015 5.39026C48.0274 7.55764 48.0274 10.4051 48.0274 16.1V31.9C48.0274 37.5949 48.0274 40.4424 46.9015 42.6097C45.9528 44.4362 44.4636 45.9254 42.6371 46.8741C40.4698 48 37.6223 48 31.9274 48H16.1274C10.4325 48 7.58504 48 5.41766 46.8741C3.59123 45.9254 2.10203 44.4362 1.15327 42.6097C0.0274048 40.4424 0.0274048 37.5949 0.0274048 31.9V16.1Z" fill="url(#paint1_radial_1_2096)"/>
<path d="M24.0007 6.54546C19.2605 6.54546 18.6656 6.56618 16.8038 6.65091C14.9457 6.736 13.6774 7.03018 12.5676 7.46182C11.4196 7.90764 10.4458 8.504 9.47568 9.47455C8.5048 10.4447 7.90846 11.4185 7.4612 12.5662C7.02848 13.6764 6.73395 14.9451 6.65031 16.8025C6.56704 18.6644 6.54523 19.2596 6.54523 24C6.54523 28.7404 6.56632 29.3335 6.65068 31.1953C6.73613 33.0535 7.0303 34.3218 7.46156 35.4316C7.90773 36.5796 8.50408 37.5535 9.47459 38.5236C10.4444 39.4945 11.4182 40.0924 12.5654 40.5382C13.6759 40.9698 14.9446 41.264 16.8024 41.3491C18.6641 41.4338 19.2587 41.4545 23.9985 41.4545C28.7391 41.4545 29.3322 41.4338 31.1939 41.3491C33.0521 41.264 34.3218 40.9698 35.4324 40.5382C36.58 40.0924 37.5523 39.4945 38.5221 38.5236C39.493 37.5535 40.0893 36.5796 40.5366 35.432C40.9656 34.3218 41.2602 33.0531 41.3474 31.1956C41.4311 29.3338 41.4529 28.7404 41.4529 24C41.4529 19.2596 41.4311 18.6647 41.3474 16.8029C41.2602 14.9447 40.9656 13.6764 40.5366 12.5665C40.0893 11.4185 39.493 10.4447 38.5221 9.47455C37.5512 8.50364 36.5803 7.90727 35.4313 7.46182C34.3186 7.03018 33.0495 6.736 31.1914 6.65091C29.3296 6.56618 28.7369 6.54546 23.9952 6.54546H24.0007ZM22.4349 9.69091C22.8996 9.69018 23.4182 9.69091 24.0007 9.69091C28.6609 9.69091 29.2133 9.70764 31.0536 9.79127C32.7553 9.86909 33.6789 10.1535 34.2942 10.3924C35.1087 10.7087 35.6894 11.0869 36.3 11.6978C36.9109 12.3087 37.289 12.8905 37.6061 13.7051C37.845 14.3196 38.1297 15.2433 38.2072 16.9451C38.2908 18.7851 38.309 19.3378 38.309 23.996C38.309 28.6542 38.2908 29.2069 38.2072 31.0469C38.1294 32.7487 37.845 33.6724 37.6061 34.2869C37.2897 35.1015 36.9109 35.6815 36.3 36.292C35.6891 36.9029 35.1091 37.2811 34.2942 37.5975C33.6797 37.8375 32.7553 38.1211 31.0536 38.1989C29.2136 38.2825 28.6609 38.3007 24.0007 38.3007C19.3401 38.3007 18.7878 38.2825 16.9478 38.1989C15.2461 38.1204 14.3224 37.836 13.7068 37.5971C12.8923 37.2807 12.3105 36.9025 11.6996 36.2916C11.0887 35.6807 10.7106 35.1004 10.3935 34.2855C10.1546 33.6709 9.86985 32.7473 9.7924 31.0455C9.70877 29.2055 9.69204 28.6527 9.69204 23.9916C9.69204 19.3305 9.70877 18.7807 9.7924 16.9407C9.87022 15.2389 10.1546 14.3153 10.3935 13.7C10.7098 12.8855 11.0887 12.3036 11.6996 11.6927C12.3105 11.0818 12.8923 10.7036 13.7068 10.3865C14.3221 10.1465 15.2461 9.86291 16.9478 9.78473C18.558 9.712 19.1819 9.69018 22.4349 9.68655V9.69091ZM33.3175 12.5891C32.1612 12.5891 31.223 13.5262 31.223 14.6829C31.223 15.8393 32.1612 16.7775 33.3175 16.7775C34.4738 16.7775 35.412 15.8393 35.412 14.6829C35.412 13.5265 34.4738 12.5891 33.3175 12.5891ZM24.0007 15.0364C19.0507 15.0364 15.0373 19.0498 15.0373 24C15.0373 28.9502 19.0507 32.9618 24.0007 32.9618C28.9507 32.9618 32.9626 28.9502 32.9626 24C32.9626 19.0498 28.9507 15.0364 24.0007 15.0364ZM24.0007 18.1818C27.2137 18.1818 29.8187 20.7865 29.8187 24C29.8187 27.2131 27.2137 29.8182 24.0007 29.8182C20.7873 29.8182 18.1827 27.2131 18.1827 24C18.1827 20.7865 20.7873 18.1818 24.0007 18.1818Z" fill="white"/>
</g>
<defs>
<radialGradient id="paint0_radial_1_2096" cx="0" cy="0" r="1" gradientUnits="userSpaceOnUse" gradientTransform="translate(12.7775 51.697) rotate(-90) scale(47.5715 44.2453)">
<stop stop-color="#FFDD55"/>
<stop offset="0.1" stop-color="#FFDD55"/>
<stop offset="0.5" stop-color="#FF543E"/>
<stop offset="1" stop-color="#C837AB"/>
</radialGradient>
<radialGradient id="paint1_radial_1_2096" cx="0" cy="0" r="1" gradientUnits="userSpaceOnUse" gradientTransform="translate(-8.01285 3.45784) rotate(78.6806) scale(21.2647 87.6539)">
<stop stop-color="#3771C8"/>
<stop offset="0.128" stop-color="#3771C8"/>
<stop offset="1" stop-color="#6600FF" stop-opacity="0"/>
</radialGradient>
<clipPath id="clip0_1_2096">
<rect width="48" height="48" fill="white"/>
</clipPath>
</defs>
</svg>
