<svg  viewBox="0 0 28 31" fill="none" xmlns="http://www.w3.org/2000/svg">
<g clip-path="url(#clip0_1_839)">
<path d="M17.242 21.1513C14.9797 24.1485 12.7178 27.1451 10.4554 30.1423C10.1029 30.6093 9.92409 30.6363 9.46575 30.2903C6.72117 28.2186 3.97659 26.1469 1.23201 24.0753C0.774276 23.7298 0.749921 23.5446 1.09963 23.0813C5.54279 17.195 9.98426 11.3083 14.4317 5.42521C14.5953 5.20839 14.6803 5.00101 14.6816 4.71985C14.6895 3.01425 16.0342 1.69039 17.7352 1.69341C17.9022 1.6934 18.047 1.66211 18.1983 1.58046C18.8156 1.24934 19.5044 1.38618 19.9508 1.92487C20.2776 2.31993 20.5981 2.72086 20.9115 3.12614C21.0428 3.29604 21.1945 3.38336 21.4151 3.39572C22.0386 3.43191 22.3642 3.78434 22.3761 4.40816C22.3839 4.8087 22.756 5.16907 23.2274 5.21074C23.6225 5.24614 24.0016 5.32286 24.3347 5.54522C24.7813 5.84354 25.0778 6.25736 25.1765 6.78767C25.2329 7.09103 25.3832 7.31024 25.5974 7.50684C26.2251 8.08239 26.3073 8.94056 25.7915 9.62762C25.6619 9.79935 25.608 9.97195 25.6104 10.1862C25.6192 10.9482 25.2369 11.4887 24.5145 11.7405C24.3422 11.8005 24.2212 11.8963 24.1112 12.0421C21.8235 15.0804 19.531 18.115 17.2404 21.151L17.242 21.1513ZM8.63596 14.6571C6.7867 17.107 4.93791 19.5563 3.08865 22.0062C2.78044 22.4145 2.47831 22.8274 2.16159 23.2293C2.02412 23.4039 2.04923 23.5198 2.22972 23.6182C2.43746 23.7323 2.64427 23.8477 2.85374 23.9583C6.28687 25.7701 10.8792 25.1512 13.742 21.8072C14.9433 20.4042 16.0718 18.923 17.0613 17.3542C18.1106 15.691 18.5024 13.8535 18.3304 11.9171C18.1302 9.66277 17.2163 7.75109 15.5704 6.21107C15.2426 5.9045 15.2464 5.89956 14.968 6.26835C12.8572 9.0648 10.7463 11.8613 8.63549 14.6577L8.63596 14.6571ZM16.4726 20.617C18.0547 18.521 19.6367 16.4251 21.2193 14.3285C21.7895 13.573 22.3563 12.8159 22.9314 12.0641C23.0585 11.8982 23.0644 11.7892 22.8746 11.6741C21.7712 11.007 20.5868 10.5687 19.3009 10.4C19.1081 10.3747 19.0318 10.3772 19.0805 10.6225C19.6717 13.6064 19.0423 16.3352 17.2228 18.8027C16.4664 19.8288 15.6879 20.8373 14.9218 21.8561C14.5844 22.3044 14.2109 22.7207 13.803 23.1032C12.0499 24.7481 9.98417 25.6732 7.60477 25.8534C7.37432 25.8705 7.33388 25.9127 7.43106 26.1354C7.93418 27.288 8.64981 28.2829 9.55672 29.142C9.8106 29.3821 9.85782 29.379 10.0854 29.0775C12.2144 26.257 14.3434 23.4365 16.4724 20.6159L16.4726 20.617ZM18.4834 2.56557C18.4013 2.6529 18.3704 2.776 18.334 2.89497C17.9822 4.04617 17.6355 5.19826 17.2769 6.34718C17.2214 6.52441 17.248 6.65217 17.357 6.79355C17.7935 7.3606 18.2085 7.95992 18.4213 8.64128C18.6253 9.2976 19.0083 9.5285 19.653 9.51381C19.8697 9.50864 19.955 9.46639 20.0116 9.25991C20.1739 8.66576 20.3553 8.07644 20.5301 7.48592C20.8139 6.52587 21.1011 5.56641 21.3792 4.605C21.4047 4.51562 21.5153 4.33629 21.3209 4.33596C20.6697 4.33514 20.317 3.91374 19.9732 3.45644C19.7391 3.1459 19.4982 2.83801 19.2404 2.54743C18.9898 2.26513 18.7004 2.2794 18.4839 2.56495L18.4834 2.56557ZM23.8467 6.3725C23.6749 6.21956 23.4553 6.17303 23.2223 6.15426C22.8666 6.12621 22.5215 6.05872 22.241 5.8198C22.0696 5.67394 22.0038 5.75227 21.9543 5.93409C21.8688 6.24965 21.8087 6.57957 21.6703 6.87168C21.3693 7.50557 21.4608 8.02267 22.003 8.45228C22.0464 8.48701 22.0802 8.53579 22.1122 8.58319C22.2185 8.74197 22.315 8.77215 22.4689 8.61C22.6872 8.38015 22.9307 8.17512 23.1673 7.96288C23.4484 7.71058 23.7232 7.72315 23.9595 8.00429C24.1972 8.28742 24.4329 8.57302 24.6597 8.86543C24.876 9.14404 24.8642 9.35046 24.6141 9.60093C24.261 9.95498 23.8959 10.2971 23.5397 10.6488C23.4753 10.7127 23.3632 10.7842 23.412 10.885C23.4639 10.9921 23.5905 11.0304 23.7079 11.0075C23.867 10.9763 24.0239 10.929 24.1786 10.877C24.5605 10.7503 24.6937 10.5725 24.6749 10.1714C24.6574 9.78878 24.7733 9.45446 24.9912 9.14566C25.2866 8.72771 25.2581 8.41529 24.8717 8.10038C24.5536 7.84179 24.3694 7.51563 24.3 7.11322C24.2483 6.81137 24.1209 6.55035 23.8467 6.3725ZM16.2308 5.53334C16.3395 5.41465 16.408 5.97249 16.5483 5.54895C16.845 4.65393 17.1024 3.74663 17.3802 2.84508C17.4274 2.69159 17.4145 2.63532 17.2321 2.67218C16.3003 2.85995 15.5485 3.83434 15.6106 4.78494C15.6176 4.89201 15.6311 4.99044 15.7206 5.06774C15.885 5.21024 16.0433 5.36078 16.2302 5.53289L16.2308 5.53334ZM5.03863 25.7336L6.81607 27.0752C6.65602 26.6868 6.51566 26.3481 6.37669 26.0076C6.34178 25.9211 6.28901 25.8697 6.18969 25.8597C5.82454 25.8226 5.45975 25.78 5.03802 25.7331L5.03863 25.7336ZM23.5926 9.30698C23.704 9.25429 23.6858 9.16204 23.5985 9.05149C23.4815 8.90307 23.4017 9.0164 23.32 9.09049C23.0011 9.38021 22.6834 9.67085 22.3685 9.96547C22.2851 10.0431 22.1191 10.1137 22.2399 10.2572C22.358 10.3978 22.5099 10.366 22.6395 10.2398C22.9482 9.93954 23.2556 9.63725 23.5928 9.30805L23.5926 9.30698ZM21.4682 9.52737C21.4806 9.5047 21.5127 9.46592 21.5233 9.42155C21.5393 9.35607 21.2301 8.93262 21.1603 8.9391C20.9688 8.95646 21.0363 9.14127 20.983 9.2474C20.936 9.33995 20.9149 9.44623 20.8889 9.54777C20.8679 9.62989 20.8349 9.72422 20.9317 9.77794C21.0268 9.83028 21.1283 9.84489 21.2209 9.75767C21.2974 9.68545 21.375 9.61414 21.4682 9.52737Z" fill="white"/>
<path d="M9.81898 17.4526C10.0464 17.1374 10.5079 17.0582 10.8138 17.2813C11.1153 17.5012 11.1853 17.966 10.9637 18.2836C10.7528 18.587 10.2722 18.6674 9.96402 18.4512C9.65823 18.2369 9.59005 17.7685 9.81898 17.4526Z" fill="white"/>
<path d="M6.70194 20.8994C7.02959 21.1467 7.08452 21.5518 6.83524 21.8795C6.59016 22.2017 6.15247 22.2708 5.84721 22.0355C5.54636 21.8045 5.48532 21.3405 5.71688 21.0363C5.96042 20.7149 6.38145 20.6565 6.70255 20.8998L6.70194 20.8994Z" fill="white"/>
<path d="M14.6829 16.1552C14.3667 15.9205 14.306 15.4713 14.5467 15.1613C14.785 14.8544 15.2146 14.7859 15.5227 15.0059C15.8311 15.227 15.9054 15.6962 15.6806 16.0066C15.454 16.3194 14.996 16.3877 14.6833 16.1546L14.6829 16.1552Z" fill="white"/>
<path d="M14.0473 11.1239C13.7415 10.8755 13.7002 10.4245 13.9561 10.1222C14.1987 9.83495 14.6607 9.78033 14.9422 10.0054C15.2517 10.2526 15.2877 10.7132 15.0219 11.0324C14.7752 11.329 14.3484 11.3685 14.0467 11.1234L14.0473 11.1239Z" fill="white"/>
<path d="M19.2562 7.10034C19.0901 7.27362 18.9081 7.3428 18.6986 7.25636C18.4901 7.16977 18.393 6.99371 18.4274 6.77241C18.4799 6.43099 18.5542 6.09239 18.623 5.75352C18.6964 5.39584 18.7658 5.03711 18.8522 4.68245C18.9144 4.42686 19.1255 4.29138 19.365 4.32674C19.6208 4.36464 19.7977 4.56895 19.7476 4.83757C19.6168 5.54561 19.463 6.24991 19.3154 6.95495C19.3035 7.00994 19.2724 7.06118 19.2561 7.09926L19.2562 7.10034Z" fill="white"/>
</g>
<defs>
<clipPath id="clip0_1_839">
<rect width="13" height="29" fill="white" transform="translate(17.4714) rotate(37.0465)"/>
</clipPath>
</defs>
</svg>
