<svg xmlns="http://www.w3.org/2000/svg" xmlns:xlink="http://www.w3.org/1999/xlink" version="1.1" id="Layer_1" x="0px" y="0px" style="enable-background:new 0 0 1500 1500;" xml:space="preserve" viewBox="249.96 302.36 1000.1 895.28">
<style type="text/css">
	.st0{fill:none;}
	.st1{fill:#2583C5;}
	.st2{fill:#FFFFFF;}
</style>
<g>
	<path class="st0" d="M691.01,1017.43c1.84-0.3,3.74,0.03,5.6-0.12C694.75,1017.44,692.84,1017.05,691.01,1017.43z"/>
	<path class="st0" d="M1059.33,464.67c-15.2-15.69-30.93-30.79-48.13-44.37c-21.79-17.2-45.02-32.1-69.58-44.88   c-22.65-11.79-46.34-21.24-70.85-28.41c-20.99-6.14-42.25-11.11-64.05-13.82c-11.9-1.48-23.82-3.31-35.73-3.59   c-20.52-0.49-41.06-0.87-61.58,1.62c-15.61,1.89-31.16,3.92-46.54,7.15c-32.24,6.77-63.21,17.33-92.92,31.53   c-2.23,1.07-3.3,0.68-4.96-0.85c-3.84-3.56-6.01-3.41-8.35-0.06c2.76,1.31,6.19,0.63,9.24,2.86c-20.34,9.82-39.3,21.04-57.48,33.64   c-18.29,12.68-35.1,27.15-51.31,42.31c-7.13,6.67-13.93,13.79-20.2,21.27c-5.52,6.58-11.69,12.6-16.77,19.55   c-4.93,6.74-10.19,13.25-14.88,20.14c-17.52,25.75-33.06,52.6-44.35,81.74c-0.78,2.02-1.5,3.44-4.04,1.15   c-2.5-2.27-5.56-4.64-10.19-1.43c5.27-0.85,7.58,3.58,11.61,4.18c1.39,0.21,0.2,1.56-0.12,2.41c-4.95,13.13-9.63,26.35-13.35,39.89   c-4.54,16.53-8.54,33.17-10.78,50.2c-0.79,5.98-1.95,11.91-2.82,17.88c-0.23,1.59-0.72,2.45-2.46,2.28   c-1.54-0.14-2.44-0.86-2.65-2.43c-0.15-1.11,0.32-2.33-0.58-3.33c-2.59,0.17-4.47,1.56-5,3.97c-1.09,4.98,5.03,5.59,5.84,9.58   c0.87-1.08,1.5-2.01,2.29-2.78c0.42-0.4,1.18-0.82,1.66-0.7c1.08,0.26,0.91,1.45,0.67,2.06c-2.05,5.36,0.11,11.02-1.73,16.48   c4.42-0.72,7.08-1.86,7.22-7.06c0.08-3.18,0.39-6.54,0.53-9.81c0.07-1.81,0.33-3.72,1.96-4.21c3.38-1.02,5.93-3.35,8.92-5.38   c-0.65,5.85-1.27,11.21-1.83,16.56c-0.36,3.48,0.43,4.92,4.43,3.37c6.84-2.64,13.9-4.73,20.88-7.02c8.41-2.76,16.82-5.5,25.2-8.24   c0.7,1.91-2,3.5,1.13,5.06c-1.08-6.44,3.66-6.83,7.69-8.13c19.39-6.3,38.63-13.15,58.21-18.79c10.61-3.06,16.99-7.53,19.74-19.42   c4.54-19.59,13.55-37.76,23.5-55.31c10.02-17.66,21.8-34.12,35.46-49.09c12.71-13.93,26.42-26.92,41.82-37.92   c18.01-12.87,37.05-23.86,57.55-32.47c17.96-7.54,36.59-12.49,55.47-16.69c13.69-3.05,27.71-4.1,41.66-4.95   c16.25-0.99,32.45,0.67,48.63,2.73c17.08,2.17,33.68,6.2,50.08,11.24c1.6,0.49,3.97,0.24,5.1,3.17c-5.31,0.91-7.33,7.33-11.58,7.84   c-4.41,0.53-9.24-2.49-13.89-3.92c-0.62-0.19-1.31-0.15-1.96-0.25c-3-0.46-5.15-1.77-4.65-5.91c-2.6,4.01-2.57,3.85-6.46,3.16   c-15.37-2.73-30.76-5.3-46.44-5.22c-6,0.03-11.99-0.01-17.99,0.01c-4.29,0.02-8.39-0.7-12.42-3.13c-0.74,1.72,0.16,4.06-3.01,4.26   c-6.68,0.4-13.29,1.64-19.91,2.73c-24.34,4.03-47.53,11.63-69.73,22.23c-19.58,9.35-37.66,21.03-54.45,34.9   c-12.56,10.38-24.22,21.61-34.6,34.05c-11.01,13.18-20.52,27.46-29.03,42.47c-8.93,15.75-15.34,32.48-21.29,49.44   c-0.51,1.44-3.04,4.55-0.27,5.44c1.99,0.63,2.48-2.76,3.12-4.76c6.12-19.25,14.34-37.57,24.56-54.98   c8.73-14.89,19.1-28.53,30.42-41.58c11.33-13.07,24.01-24.59,37.7-34.93c16.07-12.13,33.33-22.46,51.87-30.51   c12.43-5.4,25.04-10.31,38.23-13.54c1.61-0.4,4.31-2.58,4.9,1.37c0.44,2.93-0.15,4.92-3.69,5.63c-4.77,0.97-9.5,2.36-14.1,3.99   c-24.78,8.78-48.14,20.4-69.39,35.98c-22.08,16.19-41.33,35.24-57.03,57.74c-1.97,2.82-3.97,4.06-7.5,2.35   c0.02,2.73-0.3,5.11-2.53,6.81c-0.76,0.58-0.54,1.29,0.41,1.28c2.99-0.03,1.85,0.89,0.87,2.36c-5.6,8.47-10.85,17.23-14.69,26.58   c-3.68,8.95-9.55,17.01-11.11,26.82c-0.31,1.93-1.78,3.64-1.26,5.99c17.24-5.62,34.4-10.84,51.28-16.86   c8.97-3.2,18.99-2.77,27.23-7.46c7.23-4.1,14.96-6.21,22.65-8.73c27.9-9.16,55.86-18.14,83.67-27.57c5.88-2,11.08-2.39,16.97-0.24   c8.58,3.13,17.36,3.74,27.14-1.32c-8.37-1.66-15.56-3.08-22.75-4.51c-0.04-0.29-0.08-0.58-0.12-0.87   c62.91-20.63,125.82-41.26,188.98-61.97c-21.6-18.07-62.32-36.48-95.11-43.6c-35.19-7.64-70.31-7.83-106.24-1.21   c1.87-4.86-1.43-4.74-4.76-4.95c0.92-0.77,1.36-1.44,1.9-1.53c13.88-2.54,27.85-4.53,41.95-5.12c23.15-0.96,46.18,0.79,68.69,6.22   c8.53,2.06,18.23,1.78,25.15,8.81c0.23,0.23,0.7,0.97,1.1,0.18c1.42-2.81,3.25-0.67,4.62-0.2c8.8,3.04,17.39,6.61,25.8,10.61   c15.12,7.19,29.48,15.64,42.83,25.78c1.44,1.09,3.28,2.3,5.57,1.03c-0.44-0.54-0.76-1.16-1.26-1.53   c-10.72-7.79-21.64-15.31-33.42-21.41c-12.05-6.24-24.07-12.62-37.12-16.68c-0.95-0.29-2.51-0.49-2.61-1.86   c-0.1-1.36,1.33-1.61,2.26-2.26c1.61-1.13,3.43-2.39,3.73-4.47c0.56-3.9,3-2.93,5.16-2.08c27.1,10.63,52.31,24.57,75.08,42.81   c2.06,1.65,4.09,2.84,6.98,1.88c42.69-14.23,85.4-28.4,128.44-42.7c-2.4-5.43-7.13-9.29-11.11-13.43   c-9.42-9.81-18.88-19.59-29.13-28.62c-10.37-9.14-21.03-17.84-32.17-25.99c-25.21-18.42-52.15-33.89-81.02-45.67   c-28.5-11.63-57.8-20.77-88.39-25.56c-19.09-2.99-38.18-5.5-57.5-5.76c-19.18-0.26-38.28,0.44-57.4,2.77   c-20.02,2.44-39.58,6.77-59.17,11.21c-2.04,0.46-4.7,4.26-6.55-0.59c-0.09-0.24-4.57,0.5-4.64,1.07c-0.68,5.5-5.42,4.41-8.59,5.5   c-22.94,7.89-45.19,17.33-66.49,28.93c-2.09,1.14-5.51,0.89-6.1,1.97c-1.7,3.1-4.7,3.88-7.18,5.34   c-26.62,15.67-50.98,34.34-73.38,55.55c-6.97,6.6-13.59,13.58-20.05,20.74c-11.46,12.7-22.09,26.01-31.95,39.97   c-15.62,22.15-28.79,45.66-39.72,70.44c-5.21,11.8-9.85,23.85-13.78,36.1c-5.73,17.85-10.53,35.98-13.65,54.53   c-1.21,7.22-1.68,7.15-8.55,5.13c-4.43-4.49,1.29-4.98,3.97-7.72c-3.49,0.93-5.95,1.46-4.04-2.5c0.53-1.1-0.03-2.67,0.24-3.95   c4.16-19.79,9.72-39.21,16.16-58.37c1.51-4.48,3.73-8.73,5.02-13.26c1.17-4.1,3.51-7.61,5.04-11.53   c4.86-12.49,10.94-24.46,17.46-36.22c9.45-17.05,19.82-33.48,31.51-49.05c8.69-11.58,18.16-22.52,27.9-33.27   c10.02-11.07,20.76-21.28,32.06-30.96c4.36-3.74,8.31-7.79,13.72-10.5c2.15-1.08,4.43-4.94,7.01-6.82   c25.27-18.49,51.81-34.85,80.55-47.55c31.48-13.91,63.99-24.12,97.93-30.21c21.1-3.79,42.34-5.41,63.63-6.62   c14.19-0.81,28.39,0.76,42.59,1.74c16.72,1.15,33.16,3.78,49.57,7.02c23.61,4.66,46.51,11.6,68.86,20.35   c18.9,7.4,37.14,16.27,54.7,26.46c12.87,7.46,25.45,15.37,37.37,24.32c10.91,8.19,21.6,16.58,31.74,25.74   c11.82,10.68,23.22,21.74,33.67,33.77c2.92,3.36,6.1,6.51,8.88,9.99c2.32,2.9,4.89,1.84,6.71,0.22c1.55-1.38-0.74-2.99-1.63-4.07   C1069.01,475.47,1064.37,469.87,1059.33,464.67z M342.88,684.55c-0.13,1.09,0.75,1.7,1.5,2.35c3.57,3.08,4.5,7.35,2.69,11.56   c-1.07,2.5-3.29,2.86-5.34,2.64c-2.56-0.27-1.49-2.63-1.32-4C340.96,692.86,340.96,688.5,342.88,684.55z"/>
	<path class="st1" d="M341.73,701.09c2.06,0.22,4.27-0.14,5.34-2.64c1.81-4.21,0.88-8.48-2.69-11.56c-0.75-0.64-1.63-1.26-1.5-2.35   c-1.92,3.95-1.92,8.31-2.46,12.54C340.24,698.46,339.17,700.82,341.73,701.09z"/>
	<path class="st1" d="M1248.38,713.42c-12.18-36.86-24.08-73.81-36.2-110.69c-10.85-33.01-21.84-65.97-32.77-98.95   c-2.82-8.51-4.57-17.61-8.78-25.38c-7.12-13.16-19.3-17.73-34.63-12.9c-9.79,3.08-19.48,6.5-29.27,9.57   c-1.2,0.38-2.71,1.62-4.27-0.49c-6.45-8.74-13.7-16.81-20.92-24.93c-14.87-16.71-31.17-31.83-48.3-45.97   c-1.73,1.32,0.93,4.7-2.64,4.52c-2.05-0.1-5.97-6.1-4.65-7.16c2.99-2.4,0.25-2.78-0.83-3.62c-18.28-14.39-37.66-27.06-58.01-38.39   c-24.96-13.9-50.93-25.46-78.01-34.25c-27.34-8.87-55.3-15.28-83.99-18.64c-15.39-1.8-30.81-2.65-46.23-3.58   c-8.54-0.52-17.18,0.06-25.79,0.57c-12.83,0.76-25.6,1.73-38.38,3.15c-16.61,1.85-32.97,4.89-49.16,8.82   c-24.76,6.02-48.89,13.89-72.34,24.02c-21.54,9.31-42.29,19.98-62.09,32.54c-7.69,4.88-15.36,9.81-23.03,14.72   c-0.65,0.75-1.17,1.67-1.95,2.22c-16.46,11.53-31.4,24.91-46.21,38.4c-10.78,9.82-20.16,21.03-29.8,31.95   c-1.75,1.98-4.3,3.86-4.98,7.02c2.46,0.25,6.44-3.15,5.85,2.58c-0.44,4.31-6.72,7.85-10.39,5.59c-2.31-1.43-3.11,0.01-4,1.18   c-18.27,24-34.29,49.42-47.72,76.45c-0.34,0.68-1.14,1.31-0.25,2.12c10.93-2.65,13.89-5.5,14.79-14.55   c3.66,3.32,2.4,7.96,4.18,11.52c-7.96,0.46-14.23,4.75-21.13,7.2c-1.39,0.49-1.66,1.62-2.07,2.56   c-8.86,20.7-17.67,41.41-23.63,63.2c-2.84,10.38-5.87,20.7-7.82,31.3c-1.38,4.87-2.06,9.87-3.01,14.82   c-4.1,21.48-6.18,43.16-6.75,64.98c-0.08,2.92-0.77,4.34-3.73,5.23c-9.22,2.75-18.25,6.14-27.49,8.79   c-18.66,5.34-26.35,21.1-19.61,39.2c1.55,4.16,2.58,8.35,3.93,12.5c9.7,29.96,19.7,59.81,29.57,89.71c1,3.02,1.14,6.49,5.32,7.27   c0.96,0.18,1.38,2.18,0.73,2.5c-4.86,2.4-1.27,5.75-0.53,8.01c11.73,35.99,24.16,71.75,35.47,107.86   c4.82,15.39,20.98,24.1,36.95,18.79c9.45-3.14,18.92-6.19,28.28-9.58c2.97-1.08,4.86-0.65,6.62,1.83   c8.8,12.39,19.33,23.32,29.62,34.4c10.58,11.39,22.42,21.49,34.3,31.52c16.92,14.3,35.03,26.9,53.69,38.78   c2.71,1.73,2.45-0.29,3.4-1.92c0.04,3.27,1.3,5.24,4.05,6.33c2.66,1.06,5,2.77,7.48,4.17c14.27,8.04,29.02,15.1,44.09,21.57   c19.68,8.44,39.93,15.18,60.57,20.79c23.57,6.41,47.63,10.2,71.86,12.91c10.48,1.17,21.05,1.85,31.59,2.01   c22.14,0.33,44.2-0.94,66.2-3.77c12.18-1.57,24.22-3.65,36.25-6.01c14.91-2.93,29.52-6.99,44.03-11.33   c8.45-2.53,16.92-5.38,25.37-9.59c-1.93-1.35-3.39-2.12-4.53-3.21c-4.68-4.47-10.72-7.88-12.06-15.03l0.07,0.08   c-0.91-3.1-2.98-2.72-5.36-1.92c-6.95,2.35-13.85,4.89-20.91,6.85c-12.04,3.35-24.19,6.33-36.3,9.46   c1.98,6.82-1.68,10.54-10.93,11.18c1.51-1.69,3.87-1.52,5.66-2.63c2.78-1.73,4.75-4.42,3.6-7.38c-0.73-1.89-4-0.79-5.85-0.39   c-17.84,3.92-35.99,5.73-54.12,6.53c-15.7,0.69-31.49,0.69-47.28-0.53c-16.55-1.28-32.95-3.2-49.27-6.17   c-26.3-4.79-51.88-11.98-76.77-21.82c-17.84-7.05-35.07-15.28-51.91-24.43c-26.75-14.53-51.14-32.41-74.15-52.2   c-13.08-11.24-25.11-23.61-36.56-36.52c-3.88-4.37-7.45-9-11.83-14.3c3.4,1.21,5.5-3.23,8.29,0.12   c12.06,14.5,24.97,28.13,38.95,40.87c17.17,15.64,35.48,29.66,54.79,42.45c2.74,1.81,5.45,4.67,9.64,2.32   c1.18-0.66,4.41,0.03,3.24,3.03c-0.76,1.93-0.25,2.67,1.28,3.49c8.66,4.64,17.04,9.95,26.07,13.68c3.95,1.63,7.64,1.74,11.34,5.42   c4.2,4.17,11.42,5.2,17.15,7.96c5.3,2.55,11.15,3.36,16.49,5.88c8.26,3.9,17.23,5.94,25.97,8.58c27.99,8.44,56.7,13.36,85.77,15.17   c14.26,0.89,28.61,1.58,43.09,0.68c20.06-1.25,39.98-2.96,59.75-6.43c23.02-4.04,45.39-10.61,67.48-18.15   c1.98-0.67,3.93-1.71,4.77-4c0.18-0.5,1.13-2.47,1.7-0.68c1.07,3.32,3.12,0.74,3.75,0.49c25.25-10.1,49.55-22.08,72.36-36.99   c18.15-11.87,35.41-24.82,51.52-39.4c13.18-11.93,25.68-24.49,37.43-37.78c9.87-11.17,18.79-23.16,27.35-35.36   c4.55-6.48,9.24-12.98,12.74-20.5c-6.4-1.06-10.99-1.19-15.04,5.58c-11.11,18.6-24.45,35.76-39.31,51.51   c-17.92,19-36.83,36.93-58.04,52.44c-32.3,23.62-67.03,42.47-104.68,55.98c-22.47,8.06-45.38,14.27-69,18.13   c-17.86,2.93-35.74,5.35-53.81,5.68c-17.54,0.32-35.07,0.26-52.6-1.7c-9.13-1.02-18.37-1.8-27.32-3.49   c-23.54-4.45-47.01-9.43-69.36-18.44c-2.41-0.97-4.58,0.26-6.71,0.91c-2.04,0.62-3.86,1.44-6-0.05c1.1-1.46,2-2.67,3.07-4.1   c-5.61-2.29-10.76-4.29-15.83-6.48c-13.09-5.67-25.8-12.12-38.21-19.15c-2.39-1.35-4.52-2.13-6.4,0.73   c-0.51,0.78-0.65,2.75-2.32,1.4c-1.89-1.52,0.23-2.25,0.95-2.97c1.59-1.61,2.45-2.77-0.55-3.69c-0.88-0.27-1.52-1.27-2.36-1.77   c-24.16-14.44-46.35-31.52-67-50.56c-10.95-10.1-21.34-20.83-30.73-32.47c-1.93-2.4-2.83-2.97,1.07-4.21   c23.15-7.37,46.18-15.13,69.26-22.76c10.07-3.33,20.14-6.64,30.17-10.07c0.7-0.24,2.58,0,1.88-1.81c-0.17-0.43-1.97,0.17-0.99-1.29   c0.53-0.78,1.75-1.15,2.17-0.63c3,3.71,5.85,0.8,8.69-0.09c4.97-1.57,9.87-3.37,14.85-4.9c1.75-0.53,3.31-0.8,5.24,0.89   c4.66,4.07,9.81,7.61,14.88,11.21c24.76,17.55,51.81,30.42,80.91,38.89c6.26,1.82,12.86,6.21,19.17-0.08   c-1.43,3.81,1.13,5.11,4.09,5.84c15.51,3.81,31.39,5.05,47.25,5.9c13.03,0.7,26.07-0.23,39.09-1.72c10.1-1.15,20.07-2.75,30-4.85   c18.58-3.94,36.55-9.81,53.86-17.52c9.27-4.13,18.1-9.23,27.1-13.94c1.01-0.53,2.36-1.43,2.1-2.49c-0.37-1.52-2.03-1.32-3.39-1.32   c-0.65,0-1.36,1.21-1.99-0.01c0.92-3.59,3.48-3.94,5.95-2.26c3.33,2.27,5.68,1.16,8.56-0.79c19.36-13.16,37.57-27.56,53.25-45.14   c8.66-9.71,16.81-19.73,24.29-30.34c18.76-26.62,31.58-56.01,40.47-87.18c0.71-2.5,1.6-3.48,3.84-4.19   c10.26-3.28,20.5-6.6,30.65-10.2c1.12-0.4,3.97-0.09,3.43-1.88c-1.18-3.94,1.66-3.3,3.58-3.97c1.38-0.48,2.87-1.8,4.03-1.53   c2.44,0.56,1.02-4.09,2.92-2.26c1.97,1.89-1.27,2.74-2,4.16c-0.26,0.5-1.06,0.8-0.42,1.72c0.57-0.06,1.24-0.03,1.84-0.22   c26.78-8.88,53.57-17.71,80.3-26.74c4.39-1.48,5.26-0.33,5.09,3.96c-0.14,3.49-0.93,6.86-1.08,10.3   c-0.48,10.85-2.41,21.53-4.39,32.12c-4.29,22.93-10.33,45.45-18.68,67.29c-6.83,17.88-14.21,35.51-23.88,52.11   c-3.02,5.18-5.76,10.52-8.8,16.1c3.3,0,6.12-0.02,8.95,0.01c1.38,0.02,2.27-0.22,3.15-1.66c2.9-4.77,5.08-9.93,7.94-14.68   c1.03-1.71-1.07-3.18-0.02-3.49c4.1-1.22,4.58-4.99,5.98-7.94c10.46-22,19.15-44.67,25.81-68.13c5.85-20.61,9.69-41.6,12.83-62.75   c0.19-1.31,0.58-2.83-1.75-3.38c-2.21-0.53-2.36-3.11-2.48-4.89c-0.1-1.51,1.81-1.75,3.19-2.02c1.29-0.25,2-1.11,2.06-2.43   c0.13-3.28,1.67-6.43,1.03-9.78c-1.04-5.5,2.01-7.09,6.65-7.35c1.41,5.39-0.68,10.37-0.79,15.48c-0.16,6.87-1.65,13.7-1.99,20.57   c-0.43,8.67-5.85,16.89-2.35,25.91c0.08,0.22-0.14,0.72-0.37,0.87c-4.03,2.62-3.32,7.02-4.26,10.87   c-7.82,32.13-18.56,63.22-33.38,92.84c-3.06,6.12-6.35,12.14-9.69,18.51c8.09,1.83,7.9-7.06,12.79-9.07   c0.32,0.86,0.69,1.69,0.95,2.56c0.91,2.97,1.45,6.74,5.95,3.92c4.01-2.51,7.73-5.01,13-4.18c2.24,0.35,2.08-2.91,0.79-3.44   c-5.36-2.21-0.94-3.21,0.51-3.54c3.22-0.72,4.38-2.99,5.6-5.56c5.98-12.54,10.59-25.64,15.62-38.56c2.26-5.79,3.9-11.39-0.66-16.86   c-0.58-0.7-0.39-1.56,0.02-2.37c2.66,0.87,1.7,5.1,5.15,5.47c0.53-2.06,1.26-4.05,1.53-6.1c1.13-8.45,8.36-15.79,3.28-25.57   c-1.84-3.54-2.83-5.15-6.69-5.26c-3.16-0.09-7.09,1.75-9.26-2.46c4.32-2.39,8.1-1.25,16.96,1.91c3.68,1.31,4.14,0.53,4.74-2.77   c1.74-9.64,3.46-19.27,5.08-28.93c2.81-16.75,3.43-33.66,4.72-50.52c0.22-2.87,1.66-3.42,3.82-4.13c9.6-3.17,19.06-6.83,28.77-9.65   C1245.74,745.72,1253.79,729.79,1248.38,713.42z M691.01,1017.43c1.83-0.39,3.74,0.01,5.6-0.12   C694.75,1017.47,692.85,1017.13,691.01,1017.43z M697.32,1017.23c0.02,0,0.05-0.01,0.07-0.01   C697.37,1017.22,697.35,1017.23,697.32,1017.23z M866.31,989.96c-97.75,46-191.33,33.78-278.92-28.22   c1.88-0.87,3.45-1.04,5.29,0.33c13.02,9.68,26.69,18.4,41.37,25.32c16.84,7.94,34.24,14.35,52.41,18.85   c25.81,6.4,51.94,8.67,78.37,7.46c14.55-0.66,29.03-2.74,43.25-6.06c23.17-5.4,45.38-13.45,66.36-24.74   c16.49-8.87,31.85-19.34,46.19-31.41c9.44-7.95,17.76-16.98,26.4-25.69c4.89-4.92,8.89-10.71,14.18-17.2   c-7.39,1.55-12.66,4.01-16.77,8.95c-11.9,14.28-25.51,26.79-40.24,38.08c-14.61,11.2-30.51,20.35-47.17,28.05   c-19.32,8.93-39.57,15.07-60.47,19.22c-21.41,4.25-43.05,4.78-64.66,3.74c-17.63-0.85-34.99-4.47-52.04-9.25   c-17.05-4.78-33.39-11.4-49.03-19.62c-10.41-5.47-20.55-11.48-30.02-18.52c-0.64-0.47-1.09-1.19-1.63-1.79   c23.85-7.9,47.49-15.78,71.16-23.56c21.54-7.08,43.13-14.02,64.67-21.1c20.76-6.83,41.46-13.85,62.24-20.65   c43.25-14.16,86.54-28.23,129.8-42.35c18.29-5.97,36.51-12.21,54.92-17.78c3.83-1.16,2.97-4.71,5.32-6.23   c1.31-0.85,1.43-4.11,3.93-2.4c2.16,1.48,3.84,3.44,2.85,6.64c-2.77,8.9-6.1,17.59-10.08,26c-7.08,14.96-14.69,29.64-24.8,42.86   c-0.67,0.88-1.04,2-1.62,3.16c9.18,0.24,13.04-6.18,16.67-12.51c4.97-8.66,10.08-17.31,14.13-26.41   c5.1-11.47,10.88-22.73,13.7-35.13c0.56-2.45,0.75-2.4,4.72-4.43C983.22,899.59,937.28,956.57,866.31,989.96z M1075.27,485.12   c-1.82,1.62-4.39,2.68-6.71-0.22c-2.78-3.47-5.96-6.62-8.88-9.99c-10.45-12.04-21.85-23.09-33.67-33.77   c-10.14-9.16-20.83-17.54-31.74-25.74c-11.93-8.96-24.51-16.86-37.37-24.32c-17.56-10.18-35.8-19.05-54.7-26.46   c-22.36-8.76-45.26-15.7-68.86-20.35c-16.41-3.24-32.85-5.87-49.57-7.02c-14.19-0.98-28.4-2.55-42.59-1.74   c-21.29,1.21-42.53,2.83-63.63,6.62c-33.94,6.09-66.45,16.3-97.93,30.21c-28.74,12.69-55.28,29.05-80.55,47.55   c-2.58,1.89-4.86,5.74-7.01,6.82c-5.4,2.71-9.36,6.77-13.72,10.5c-11.3,9.68-22.04,19.89-32.06,30.96   c-9.74,10.76-19.2,21.7-27.9,33.27c-11.69,15.57-22.06,32-31.51,49.05c-6.52,11.76-12.6,23.73-17.46,36.22   c-1.53,3.92-3.87,7.43-5.04,11.53c-1.29,4.53-3.51,8.78-5.02,13.26c-6.44,19.16-12,38.57-16.16,58.37   c-0.27,1.28,0.29,2.85-0.24,3.95c-1.91,3.95,0.55,3.42,4.04,2.5c-2.68,2.74-8.41,3.23-3.97,7.72c6.87,2.02,7.34,2.09,8.55-5.13   c3.11-18.55,7.92-36.67,13.65-54.53c3.93-12.25,8.58-24.3,13.78-36.1c10.93-24.79,24.1-48.3,39.72-70.44   c9.85-13.97,20.48-27.27,31.95-39.97c6.46-7.16,13.08-14.14,20.05-20.74c22.4-21.21,46.76-39.87,73.38-55.55   c2.48-1.46,5.48-2.24,7.18-5.34c0.59-1.08,4.02-0.83,6.1-1.97c21.31-11.6,43.56-21.05,66.49-28.93c3.17-1.09,7.91,0,8.59-5.5   c0.07-0.57,4.55-1.31,4.64-1.07c1.85,4.85,4.51,1.05,6.55,0.59c19.59-4.43,39.16-8.77,59.17-11.21c19.12-2.33,38.22-3.03,57.4-2.77   c19.32,0.26,38.41,2.77,57.5,5.76c30.59,4.79,59.89,13.93,88.39,25.56c28.87,11.78,55.82,27.25,81.02,45.67   c11.15,8.14,21.81,16.85,32.17,25.99c10.24,9.03,19.71,18.81,29.13,28.62c3.98,4.14,8.71,8,11.11,13.43   c-43.04,14.3-85.75,28.47-128.44,42.7c-2.89,0.96-4.91-0.22-6.98-1.88c-22.76-18.23-47.98-32.18-75.08-42.81   c-2.16-0.85-4.6-1.82-5.16,2.08c-0.3,2.08-2.12,3.34-3.73,4.47c-0.93,0.65-2.36,0.9-2.26,2.26c0.1,1.37,1.67,1.56,2.61,1.86   c13.05,4.06,25.07,10.44,37.12,16.68c11.77,6.1,22.7,13.62,33.42,21.41c0.5,0.37,0.82,0.99,1.26,1.53   c-2.29,1.28-4.13,0.07-5.57-1.03c-13.35-10.15-27.71-18.59-42.83-25.78c-8.41-4-17-7.57-25.8-10.61c-1.37-0.47-3.2-2.61-4.62,0.2   c-0.4,0.79-0.87,0.06-1.1-0.18c-6.92-7.03-16.62-6.75-25.15-8.81c-22.51-5.43-45.54-7.18-68.69-6.22   c-14.1,0.59-28.07,2.58-41.95,5.12c-0.54,0.1-0.98,0.77-1.9,1.53c3.34,0.2,6.64,0.09,4.76,4.95c35.93-6.62,71.05-6.44,106.24,1.21   c32.79,7.12,73.51,25.53,95.11,43.6c-63.16,20.71-126.07,41.34-188.98,61.97c0.04,0.29,0.08,0.58,0.12,0.87   c7.19,1.43,14.38,2.85,22.75,4.51c-9.78,5.06-18.57,4.45-27.14,1.32c-5.88-2.14-11.08-1.75-16.97,0.24   c-27.81,9.43-55.77,18.41-83.67,27.57c-7.69,2.53-15.43,4.63-22.65,8.73c-8.25,4.68-18.27,4.26-27.23,7.46   c-16.88,6.02-34.04,11.24-51.28,16.86c-0.52-2.35,0.95-4.06,1.26-5.99c1.56-9.81,7.43-17.87,11.11-26.82   c3.85-9.36,9.09-18.11,14.69-26.58c0.97-1.47,2.11-2.39-0.87-2.36c-0.94,0.01-1.16-0.7-0.41-1.28c2.23-1.7,2.55-4.08,2.53-6.81   c3.53,1.7,5.53,0.47,7.5-2.35c15.7-22.5,34.95-41.55,57.03-57.74c21.25-15.58,44.6-27.2,69.39-35.98c4.6-1.63,9.32-3.03,14.1-3.99   c3.54-0.72,4.13-2.7,3.69-5.63c-0.59-3.95-3.29-1.77-4.9-1.37c-13.19,3.24-25.8,8.14-38.23,13.54   c-18.54,8.05-35.8,18.38-51.87,30.51c-13.69,10.34-26.37,21.86-37.7,34.93c-11.32,13.06-21.69,26.7-30.42,41.58   c-10.21,17.42-18.44,35.73-24.56,54.98c-0.64,2.01-1.13,5.4-3.12,4.76c-2.77-0.88-0.24-4,0.27-5.44   c5.94-16.96,12.36-33.69,21.29-49.44c8.51-15.01,18.02-29.29,29.03-42.47c10.38-12.44,22.04-23.67,34.6-34.05   c16.79-13.86,34.87-25.55,54.45-34.9c22.2-10.6,45.38-18.19,69.73-22.23c6.62-1.1,13.24-2.33,19.91-2.73   c3.17-0.19,2.27-2.54,3.01-4.26c4.03,2.43,8.13,3.15,12.42,3.13c6-0.03,11.99,0.02,17.99-0.01c15.69-0.08,31.08,2.48,46.44,5.22   c3.89,0.69,3.86,0.86,6.46-3.16c-0.49,4.14,1.65,5.45,4.65,5.91c0.65,0.1,1.34,0.06,1.96,0.25c4.66,1.43,9.49,4.46,13.89,3.92   c4.25-0.52,6.27-6.93,11.58-7.84c-1.13-2.93-3.5-2.68-5.1-3.17c-16.39-5.03-33-9.06-50.08-11.24c-16.17-2.06-32.38-3.72-48.63-2.73   c-13.94,0.85-27.97,1.9-41.66,4.95c-18.88,4.21-37.51,9.15-55.47,16.69c-20.51,8.61-39.54,19.61-57.55,32.47   c-15.4,11-29.11,24-41.82,37.92c-13.66,14.97-25.44,31.43-35.46,49.09c-9.95,17.54-18.97,35.72-23.5,55.31   c-2.75,11.89-9.13,16.36-19.74,19.42c-19.58,5.65-38.81,12.5-58.21,18.79c-4.03,1.31-8.77,1.7-7.69,8.13   c-3.13-1.56-0.42-3.15-1.13-5.06c-8.38,2.74-16.8,5.47-25.2,8.24c-6.98,2.29-14.03,4.38-20.88,7.02c-4,1.54-4.79,0.1-4.43-3.37   c0.56-5.36,1.18-10.71,1.83-16.56c-2.99,2.04-5.55,4.36-8.92,5.38c-1.64,0.49-1.89,2.4-1.96,4.21c-0.14,3.27-0.45,6.63-0.53,9.81   c-0.14,5.21-2.8,6.34-7.22,7.06c1.84-5.46-0.31-11.12,1.73-16.48c0.23-0.61,0.4-1.81-0.67-2.06c-0.48-0.12-1.25,0.3-1.66,0.7   c-0.79,0.76-1.42,1.69-2.29,2.78c-0.81-3.99-6.93-4.6-5.84-9.58c0.53-2.41,2.41-3.8,5-3.97c0.89,1,0.43,2.22,0.58,3.33   c0.21,1.57,1.11,2.28,2.65,2.43c1.74,0.16,2.23-0.7,2.46-2.28c0.87-5.97,2.03-11.9,2.82-17.88c2.24-17.03,6.24-33.67,10.78-50.2   c3.72-13.54,8.4-26.76,13.35-39.89c0.32-0.84,1.51-2.2,0.12-2.41c-4.03-0.6-6.34-5.03-11.61-4.18c4.63-3.21,7.69-0.83,10.19,1.43   c2.54,2.3,3.26,0.87,4.04-1.15c11.29-29.15,26.83-55.99,44.35-81.74c4.69-6.9,9.95-13.4,14.88-20.14   c5.08-6.95,11.26-12.97,16.77-19.55c6.27-7.48,13.07-14.6,20.2-21.27c16.21-15.17,33.01-29.64,51.31-42.31   c18.18-12.6,37.14-23.82,57.48-33.64c-3.05-2.23-6.48-1.55-9.24-2.86c2.34-3.35,4.51-3.49,8.35,0.06c1.66,1.53,2.73,1.92,4.96,0.85   c29.71-14.21,60.68-24.76,92.92-31.53c15.39-3.23,30.93-5.25,46.54-7.15c20.52-2.49,41.07-2.11,61.58-1.62   c11.91,0.29,23.83,2.11,35.73,3.59c21.8,2.72,43.06,7.68,64.05,13.82c24.51,7.17,48.2,16.62,70.85,28.41   c24.56,12.79,47.79,27.69,69.58,44.88c17.2,13.58,32.92,28.68,48.13,44.37c5.04,5.2,9.68,10.8,14.31,16.37   C1074.54,482.12,1076.82,483.74,1075.27,485.12z"/>
	<path class="st1" d="M827.47,926.01c-1.07-6.12-2.04-12.23-2.76-18.4c-0.13-1.14,0.2-2.55-1.07-3.08c-1.38-0.57-1.95,0.94-2.7,1.68   c-4.52,4.43-9.01,8.89-13.42,13.42c-1.47,1.5-2.66,1.88-5.01,1.48c-5.95-1.01-11.93-1.87-17.85-3.1c-1.08-0.23-2.59-0.3-3.37,0.28   c-1.28,0.95,0.2,2.16,0.65,2.98c2.94,5.31,4.9,11.13,8.53,16.07c1.38,1.88,1.42,3.82,0.17,5.93c-2.25,3.81-4.5,7.64-6.36,11.63   c-1.26,2.71-4.4,5.4-2.86,8.27c0.56,1.05,5.01-0.4,7.62-1.21c1.23-0.38,2.78,0.17,3.94-0.3c8.64-3.5,15.53-1.88,21.15,5.95   c2.59,3.62,6.3,6.43,9.5,9.61c0.64-7.03,2.94-12.98,3.1-19.24c0.1-3.8,1.8-6.47,5.58-8.12c6.14-2.67,12.05-5.87,19.45-9.53   c-7.33-3.52-13.46-6.58-19.69-9.41C829.76,929.88,828.02,929.16,827.47,926.01z"/>
	<path class="st1" d="M893.48,881.85c-0.26-4.61-1.46-9.17-2.48-15.06c-4.03,4.15-7.43,7.47-10.62,10.98   c-1.92,2.11-3.9,2.34-6.63,1.83c-4.2-0.8-8.42-2.44-13.03-1.25c2.21,4.34,4.11,8.48,6.4,12.4c1.43,2.45,1.34,4.31-0.31,6.62   c-2.62,3.68-4.46,7.82-6.3,12.59c5.03-0.87,9.6-1.24,13.89-2.54c2.8-0.85,4.35-0.05,6.04,1.76c3.16,3.39,6.38,6.72,9.58,10.08   c0.44-0.18,0.87-0.36,1.31-0.53c0.27-2.71,1.4-5.19,1.37-8.03c-0.05-5.92,1.78-10.6,8.23-12.59c3.02-0.93,6.06-2.35,8.95-4.98   c-4.38-2.19-8.45-4.24-12.54-6.26C895.22,885.82,893.65,884.83,893.48,881.85z"/>
	<path class="st1" d="M738.58,932.08c-0.4-4.74-1.56-9.41-2.71-15.86c-4.15,4.57-7.45,8.06-10.58,11.7   c-1.48,1.72-3.23,2.46-5.27,1.89c-4.55-1.28-9.22-1.66-14.23-2.39c0.15,2.48,1.4,3.81,2.28,5.37c3.18,5.69,7.42,11.16,1.88,18.07   c-1.86,2.32-3.73,5.26-3.68,8.69c3-0.55,6.06-0.86,8.98-1.69c5.66-1.6,10-0.27,13.67,4.5c1.91,2.49,4.12,5.05,7.57,6.79   c0.47-3.76,0.9-6.97,1.27-10.19c0.54-4.71,1.84-8.52,7.16-10.29c3.35-1.12,6.91-2.6,10.02-5.65c-4.5-2.23-8.6-4.24-12.68-6.29   C740.32,935.76,738.81,934.82,738.58,932.08z"/>
	<path class="st1" d="M894.65,1148.73c0.46-2.5,1.35-4.08,4.2-5.24c13.3-5.43,26.71-10.74,39.49-17.25   c25.83-13.16,50.31-28.48,73.07-46.6c17.28-13.75,33.44-28.66,48.35-44.8c20.94-22.67,39.13-47.5,54.43-74.37   c1.42-2.5,1.76-3.5,4.81-1.08c2.59,2.06,6.58-0.61,10-0.87c5.54-0.42,11-1.87,17.04-1.58c-2.97,8.21-7.66,15.29-11.98,22.47   c-4.49,7.45-8.93,14.99-13.98,22.09c-9.64,13.54-19.37,27.01-30.23,39.67c-10.81,12.61-22.23,24.61-34.33,35.91   c-14.38,13.44-29.62,25.88-45.78,37.24c-17.93,12.61-36.51,24.11-55.9,34.21c-11.57,6.03-23.8,10.79-35.69,16.22   c-2.04,0.93-3.67,0.57-5.44-0.46c-7.02-4.09-13.06-9.29-18.12-15.64C894.59,1148.65,894.65,1148.73,894.65,1148.73z"/>
	<path class="st2" d="M822.83,736.25c-1.56-11.77-3.06-22.8-4.45-33.85c-0.68-5.37-1.06-10.78-1.7-16.15   c-0.99-8.19-2.08-16.37-3.15-24.55c-0.48-3.66-0.64-6.74,4.12-8.18c8.5-2.57,8.78-3.05,13.3,4.53   c6.01,10.08,10.82,20.91,17.23,30.72c6.95,10.64,11.5,22.58,19.24,32.81c-3.38-13.42-6.52-26.91-10.23-40.24   c-2.57-9.23-4.05-18.71-7.18-27.83c-2.67-7.79,0.22-11.74,8.16-13.45c1.57-0.34,2.97-1.44,4.54-1.83c5.23-1.3,9.59,1.28,9.79,6.52   c0.33,8.98,3.93,17.16,5.52,25.83c4.17,22.77,8.88,45.44,13.72,68.08c2.51,11.75,4.16,23.67,7.59,35.25   c1.09,3.68,1.28,8.33-0.02,11.83c-1.69,4.54-6.96,5.56-11.39,6.43c-2.78,0.55-5.13-0.33-7.18-3.3   c-5.15-7.45-8.32-15.93-13.07-23.52c-6.92-11.05-13.09-22.49-19.01-34.09c-2.11-4.14-4.77-8-7.67-11.8   c1.4,7.19,1.24,14.49,2.74,21.5c1.22,5.68,1.34,11.42,1.76,17.09c0.66,9.02,3.58,17.67,3.68,26.76c0.05,4.73,0.95,9.45,1.52,14.17   c0.25,2.07-0.67,3.48-2.25,4.64c-3.53,2.56-7.72,3.54-11.82,4.23c-3.92,0.66-5.82-2.71-7.21-5.67   c-3.73-7.93-7.06-16.04-10.77-23.97c-4.85-10.39-10.46-20.46-14.7-31.08c-3.38-8.47-7.39-16.67-10.66-25.2   c-2.09-5.47-5.14-10.81-7.7-16.25c-5.16-10.99-10.43-21.93-14.73-33.3c-0.74-1.96-0.18-3.1,1.8-4.41   c4.69-3.11,10.17-3.27,15.26-4.78c4.65-1.37,5.91,2.99,7.15,5.87c3.51,8.2,6.41,16.66,9.73,24.95   c4.49,11.21,9.03,22.39,13.79,33.48C819.7,730.15,819.25,733.47,822.83,736.25z"/>
	<path class="st2" d="M655.92,794.42c-0.46-7.93-4.3-13.51-5.91-19.79c-3.62-14.15-8.62-27.87-13.63-41.58   c-1.45-3.96-2.54-8.09-3.44-12.21c-1.28-5.84,1.63-9.91,7.97-11.71c11.01-3.12,11.18-3.2,15.75,7.57   c2.41,5.68,4.18,11.64,6.1,17.52c3.41,10.47,6.99,20.9,10.01,31.48c4.32,15.18,10.43,29.75,14.85,44.87   c3,10.25,5.88,20.54,10.09,30.39c0.12,0.29,0.15,0.69,0.06,0.99c-0.9,3.1,3.36,6.98,0.47,8.84c-5.67,3.66-11.61,8.1-18.96,6.96   c-3.23-0.5-4.86-4.29-6.7-6.78c-9.9-13.39-19.4-27.08-29.04-40.67c-5.37-7.57-10.75-15.15-16.73-23.59   c0.9,4.15,1.06,7.33,2.54,10.41c3.63,7.52,4.77,15.87,7.5,23.7c1.22,3.5,2.64,6.95,3.84,10.43c3.54,10.29,5.71,21.02,9.83,31.16   c1.28,3.14,0.28,5.55-3.42,6.47c-4.73,1.17-9.01,3.56-13.87,4.65c-4.02,0.9-4.46-1.07-5.27-3.51   c-6.01-18.21-11.95-36.45-17.98-54.66c-7.31-22.1-14.74-44.15-21.97-66.27c-1.81-5.55-2.88-11.35-4.63-16.93   c-0.72-2.31-0.08-3.14,1.83-4.23c4.44-2.54,9.49-3.15,14.21-4.74c3.18-1.07,5.46,0.28,7.91,3.4   c11.81,15.08,22.19,31.17,33.72,46.44C646.01,779.62,650.8,786.44,655.92,794.42z"/>
	<path class="st2" d="M720.07,728.79c2.76-1.66,4.02-3.61,3.87-6.62c4.74,3.17,2.07,5.94-0.48,7.37c-3.13,1.76-2.76,3.39-1.63,5.98   c1.23,2.83,1.76,5.97,3.11,8.72c1.66,3.38,3.78,5.51,8.51,4.06c9.76-2.99,18.9-7.71,29.02-9.8c3.93-0.81,5.46,0.07,6.21,3.54   c1.28,5.93,3.47,10.99,10.77,11.09c-0.19,0.49-0.2,0.69-0.31,0.8c-6.6,6.35-14.12,10.36-23.41,12.01   c-5.71,1.01-11.22,3.97-16.95,5.73c-2.76,0.85-3.55,4.12-2.79,6.55c3.04,9.78,6.45,19.45,9.8,29.13c1.05,3.06,3.78,3.05,6.14,2.49   c8.37-1.98,16.4-5.12,24.79-7.15c2.77-0.67,5.11-3.4,8.53-2.7c0.9,0.18,1.98-0.26,2.44,1.08c1.98,5.83,5.48,11.23,5.04,17.73   c-0.08,1.15,0.55,2.41-1.35,3.23c-9.6,4.13-19.46,7.47-29.62,9.87c-2.56,0.6-4.91,1.28-7.26,2.61c-5.48,3.11-11.83,3.71-17.76,5.55   c-4.8,1.49-6.8-1.84-7.56-4.74c-3.27-12.47-8.78-24.21-12.07-36.57c-3.35-12.6-7.93-24.78-11.83-37.16   c-3.07-9.74-6.8-19.39-9.42-29.23c-3.02-11.33-8.67-21.8-10.31-33.55c-0.26-1.83-0.31-2.43,1.31-3.3c3.77-2.04,7.87-3.15,11.9-4.36   c7.38-2.21,14.52-5.29,21.93-7.13c7.44-1.85,14.08-6,21.76-6.91c2.48-0.3,4.29,0.15,5.4,2.88c1.84,4.53,4.08,8.86,5.35,13.65   c0.65,2.46,0.24,3.3-1.78,4.69c-6.75,4.62-15.09,4.96-22.15,8.68c-1.84,0.97-4.02,1.27-6.02,1.95c-7.73,2.61-8.03,3.28-5.61,10.72   C718.54,722.61,719.22,725.63,720.07,728.79z"/>
	<path class="st2" d="M321.71,918.9c2.68,0.94,5.58,1.89,8.69,2.31c2,0.27,2.02,2.47,1.45,4.1c-1.4,3.97-4.83,6.09-8.12,8.21   c-1.75,1.12-1.86-1.05-2.16-1.77c-1.22-3-2.18-6.1-3.17-9.19C317.53,919.81,319.03,918.95,321.71,918.9z"/>
	<path class="st2" d="M720.27,879.04c-0.61,4.4-3.17,7.48-5.15,10.81c-1.41,2.36-2.58,4.51-2.38,7.3c0.07,0.9,0.39,2.09-0.8,2.59   c-0.8,0.33-1.62,0.13-2.29-0.51c-0.99-0.93-1.1-2-0.46-3.15c2.36-4.22,3.47-8.64,3.85-13.55   C713.31,878.97,717.73,880.28,720.27,879.04z"/>
	<path class="st2" d="M375.63,837.64c4.66-3.01,7.97-6.26,13.36-4.84c2.56,0.68,3.11,1.89,3.05,4.15c-0.07,2.85-2.18,1.81-3.61,2   C384.45,839.48,380.64,838.22,375.63,837.64z"/>
	<path class="st2" d="M1229.52,721.78c-8.58,0.55-16.09,2.32-23.32,7.35c1.03-6.14,6.01-7.37,9.9-8.67   C1220.16,719.09,1225.09,716.89,1229.52,721.78z"/>
	<path class="st2" d="M526.82,722.47c0.25,3.09-0.15,5.86,1.4,8.44c1.7,2.82-1.33,3.82-2.78,4.7c-1.77,1.08-2.25-1.12-2.82-2.37   C520.45,728.45,521.82,724.67,526.82,722.47z"/>
	<path class="st2" d="M1083.18,471.14c-2.77,0.22-4.42-0.16-4.39-1.64c0.04-2.03,1.98-1.26,3.06-1.01c1.22,0.28,2.46,1.58,3.44-0.03   c0.81-1.33-0.44-2.56-1.05-3.62c-0.72-1.26-2.02-2.17-2.95-3.32c-0.59-0.74-2.35-1.31-0.78-2.67c1.02-0.88,2.06-0.71,3.14,0.08   c3.24,2.36,3.84,6.43,6.18,9.39c0.67,0.85-0.47,0.98-0.95,1.13C1086.56,470.17,1084.23,470.83,1083.18,471.14z"/>
	<path class="st2" d="M587.46,676.37c5.24-1.84,6.14,2.57,7.23,5.7c1.59,4.55-2.08,10.68-7.32,12.99c-0.87-2.62,1.55-3.42,2.68-4.55   c3.53-3.53,3.77-5.52,0.45-9.28C589.2,679.76,587.47,678.61,587.46,676.37z"/>
	<path class="st2" d="M422.31,1045.17c-1.36,0.71-1.94,0.48-2.16-0.25c-0.25-0.82-0.03-1.59,0.55-2.29   c1.91-2.28,4.97-2.28,7.32-3.72c1.08-0.66,2.4-0.98,3.64-1.35c1.35-0.4,1.97-3.68,3.61-1.6c1.02,1.29-1.5,2.48-2.53,3.55   C429.71,1042.66,425.67,1044.07,422.31,1045.17z"/>
	<path class="st2" d="M285.61,752.53c-2.57,2.12-5.05,3.86-8.42,3.53c-1.46-0.14-2.64-0.5-2.95-2.04c-0.44-2.15,1.54-2.42,2.73-2.79   C279.92,750.29,282.61,752.63,285.61,752.53z"/>
	<path class="st2" d="M1008.87,816.82c1.32-4.11,5.14-4.82,8.11-6.54c1.4-0.81,1.39,0.86,1.91,1.52c1.22,1.55,0.19,2.54-1.08,3.04   C1015.01,815.94,1012.18,817.11,1008.87,816.82z"/>
	<path class="st2" d="M715.17,663.81c-3.68,4.41-8.74,3.32-12.89,5.36C704.14,664.3,708.32,662.53,715.17,663.81z"/>
	<path class="st2" d="M418.2,460.07c1.48,0.87,4.63-0.88,4.32,1.47c-0.37,2.84-4.13,2.7-6.48,3.43c-1.13,0.35-3.37-0.58-2.98-2.88   C413.67,458.46,416.62,461.18,418.2,460.07z"/>
	<path class="st2" d="M1151.76,717.63c0.75,4.07,5.1,8.05,0.42,12.24C1152.94,725.73,1148.05,721.89,1151.76,717.63z"/>
	<path class="st2" d="M290.53,873.29c2.17,1.15,3.08,2.51,1.58,4.72c-1.59,2.34-3.39,4.37-6.38,4.69c-0.4,0.04-1.35-1-1.26-1.28   c0.28-0.87,0.77-1.93,1.5-2.36C288.25,877.69,289.98,875.99,290.53,873.29z"/>
	<path class="st2" d="M637.53,1179.7c-1.37-0.07-2.96,0.18-2.58-1.61c0.66-3.13,3.84-3.14,6.04-4.25c1.15-0.58,2.71,0.51,2.6,1.55   C643.19,1179.05,639.57,1178.48,637.53,1179.7z"/>
	<path class="st2" d="M789.64,595.69c-4.03,2.89-6.78,1.56-9.47,0.22c-1.11-0.55-1.78-1.63-1.27-2.87c0.58-1.42,2.04-1.01,3-0.72   C784.33,593.04,785.98,595.33,789.64,595.69z"/>
	<path class="st2" d="M539.82,720.8c-1.19,2.19-2.43,3.65-2.75,5.28c-0.36,1.84-1.23,2.08-2.68,1.94c-1.55-0.15-2.31-1.04-2.45-2.57   c-0.15-1.6,0.43-2.27,2.13-2.54C535.76,722.64,537.36,721.74,539.82,720.8z"/>
	<path class="st2" d="M1151.37,906.57c0.59-3.54,2.6-5.75,4.8-7.87c0.67-0.65,1.32-0.86,2.16-0.33c1.24,0.79,0.57,1.7,0.09,2.46   C1156.81,903.4,1154.91,905.68,1151.37,906.57z"/>
	<path class="st2" d="M534.36,893.18c-0.54,3.2-3.38,2.59-5.41,3.09c-1.41,0.35-2.79-0.36-3.67-1.66c-0.44-0.65-0.21-1.22,0.28-1.74   c1.07-1.14,2.11-0.92,3.52-0.43C530.72,893.02,532.59,892.96,534.36,893.18z"/>
	<path class="st2" d="M415.1,978.51c-0.79,1.23-0.63,3.27-2.51,3.22c-2.03-0.06-2.66-2.07-2.39-3.51c0.27-1.44,0.04-4.16,2.21-3.99   C414.24,974.38,414.44,976.88,415.1,978.51z"/>
	<path class="st2" d="M643.67,324.3c2.48-1.89,5.71-3.41,7.18-1c2.72,4.46-1.97,2.83-3.81,3.47   C646.78,325,644.78,325.75,643.67,324.3z"/>
	<path class="st2" d="M1121.3,518.96c-1.64,2.2-3.23,4.36-6.04,2.45c-0.86-0.58-2.35-1.51-1.47-2.75   C1116.22,515.2,1118.7,519.27,1121.3,518.96z"/>
	<path class="st2" d="M813.88,595.98c3.53,1.56,6.19,1.81,8.08-1.4c0.35-0.59,0.85-1.53,1.84-0.71c0.66,0.55,1.12,1.2,0.5,2.08   c-1.62,2.29-4.12,3.08-6.64,3.63C815.43,600.07,814.69,598.3,813.88,595.98z"/>
	<path class="st2" d="M470.54,957.46c-0.33,3.71-2.62,4.61-4.93,5.5c-0.8,0.31-1.75,1.59-2.37,0.16c-0.47-1.06-0.88-2.61,0.92-3.27   C466.1,959.13,468.03,958.4,470.54,957.46z"/>
	<path class="st2" d="M429.35,456.75c1.56-2.79,4.97-3.8,6.36-1.82c3.05,4.35-0.75,3.69-3.34,3.17   C431.33,457.9,430.37,457.22,429.35,456.75z"/>
	<path class="st2" d="M915.95,565.67c2.53-3.02,5.7-2.63,8.78-2.32c1,0.1,1.91,0.96,1.64,2.06c-0.23,0.95-1.45,1-2.09,0.61   C921.58,564.36,918.89,567.48,915.95,565.67z"/>
	<path class="st2" d="M344.9,615.89c-2.09,2.26-4.37,3.09-6.95,1.54c-0.94-0.57-1.28-2.09-0.65-2.56   C340,612.84,342.28,615.78,344.9,615.89z"/>
	<path class="st2" d="M645.64,884.86c0.89,1.73,3.88-3.41,4,0.98c0.04,1.49-1.47,3.3-3.28,2.77c-1.48-0.43-3.84-0.95-3.42-3.44   C643.3,883.06,644.53,884.4,645.64,884.86z"/>
	<path class="st2" d="M1179.78,714.45c1.1-1.33,2.2-2.67,3.42-4.15c1.08,1.82,3.49,3.85,2.1,5.51   C1183.87,717.52,1181.37,716.16,1179.78,714.45z"/>
	<path class="st2" d="M1158.57,545.6c1.07-2.71,0.53-5.55,3.99-5.39c1.15,0.06,2.1,0.4,1.77,1.69   C1163.63,544.7,1161.23,544.67,1158.57,545.6z"/>
	<path class="st2" d="M1214.47,743.23c-1.02,3.65-4.21,4.1-6.6,5.48C1208.48,745.25,1210.43,743.37,1214.47,743.23z"/>
	<path class="st2" d="M1045.6,769.29c0.4,1.71-1.36,1.67-2.78,2c-2.42,0.56-1.41-1.75-1.75-2.5c-1.22-2.66,1.66-1.71,2.6-2.12   C1045.13,766.02,1045.33,767.57,1045.6,769.29z"/>
	<path class="st2" d="M689.78,1017.83c4.51-1.33,9.06-2,13.73-1.21c-4.49,1.81-9.17,0.97-13.79,1.14   C689.72,1017.76,689.78,1017.83,689.78,1017.83z"/>
	<path class="st2" d="M630.75,656.13c0.43,2.2-1.33,1.84-2.46,2.19c-2.77,0.86-1.65-1.92-2-2.67c-1.01-2.22,1.5-1.48,2.4-1.76   C630.48,653.35,630.15,655.32,630.75,656.13z"/>
	<path class="st2" d="M397.35,949.7c3.71,0.79,5.6,1.9,6.14,4.41c0.07,0.3-1.18,1.33-1.68,1.24   C399.11,954.88,399.08,952.34,397.35,949.7z"/>
	<path class="st2" d="M399.17,533.72c2.1-2.16,3.99-2.99,6.25-1.31c0.55,0.41,0.7,1.07,0.12,1.68   C403.39,536.39,401.42,534.84,399.17,533.72z"/>
	<path class="st2" d="M1088.49,749.32c0.13,1.12-0.53,1.61-1.98,1.74c-2.4,0.21-2.06-1.72-2.32-2.92c-0.43-1.92,1.53-1.16,2.27-1.4   C1088.23,746.18,1088.41,747.66,1088.49,749.32z"/>
	<path class="st2" d="M618.79,674.21c1.18,0.21,1.89,0.94,2,2.23c0.15,1.77-1.14,1.73-2.25,1.61c-0.73-0.08-2.22,0.72-2.02-0.91   C616.67,675.93,617.22,674.63,618.79,674.21z"/>
	<path class="st2" d="M1000.41,386.05c-3.12,0.58-4.81-1.38-7.71-2.96C996.83,381.91,998.59,383.7,1000.41,386.05z"/>
	<path class="st2" d="M428.58,730.16c0.06-0.01-0.64-0.61-0.56-2.06c0.05-0.99,0.06-2.02,1.44-1.98c1.5,0.05,2.36,0.87,2.47,2.38   C432.05,729.91,431.05,729.98,428.58,730.16z"/>
	<path class="st2" d="M889.86,824.13c1.03,0.27,1.86,1.11,1.68,2.65c-0.17,1.39-1.3,1.12-2.22,1.16c-1.68,0.07-1.67-1.11-1.66-2.28   C887.68,824.47,888.24,823.9,889.86,824.13z"/>
	<path class="st2" d="M757.75,845.54c2.2-1.29,3.6,0.09,4.75,1.29c0.56,0.58-0.5,1.71-1.18,1.8   C759.06,848.94,758.44,847.21,757.75,845.54z"/>
	<path class="st2" d="M872.47,991.76c-1.21,2.27-2.25,3.66-4.42,2.75c-0.71-0.3-1.66-1.16-1.12-1.86   C868.23,990.97,870.17,992.2,872.47,991.76z"/>
	<path class="st2" d="M831.56,619.31c-0.49,1.18-1.26,1.93-2.59,1.77c-1.27-0.15-2.26-0.86-2.1-2.15c0.1-0.8,0.78-1.91,2.04-1.07   C829.75,618.42,831.38,617.58,831.56,619.31z"/>
	<path class="st2" d="M730.95,888.97c2.59-1.26,1.95-4.13,4.52-3.62c0.93,0.19,1.62,1.41,1.16,2.45   C735.69,889.98,733.81,888.6,730.95,888.97z"/>
	<path class="st2" d="M907.43,608.51c0.42,3.97-2.66,4.41-6.01,6.11C903.9,612.1,905.61,610.36,907.43,608.51z"/>
	<path class="st2" d="M1173.65,508.44c-2.5-0.79-4.26-1.13-5.06-2.93c-0.28-0.63,0.27-1.24,1.08-1.21   C1171.78,504.37,1172.75,505.73,1173.65,508.44z"/>
	<path class="st2" d="M943.86,577.64c0.42-0.2,0.65-0.37,0.71-0.32c1.48,1.16,4.15,0.25,4.83,2.72c0.07,0.26-0.45,0.96-0.75,1   C946,581.38,945.27,579.17,943.86,577.64z"/>
	<path class="st2" d="M334.66,792.64c-0.65-1.05-1.68-1.83-3.02-2.03c0.72-0.5,1.49-1.47,2.14-1.4c1.31,0.14,3.29,0.55,3.65,1.41   C337.88,791.68,335.93,791.91,334.66,792.64z"/>
	<path class="st2" d="M507.62,807.76c-0.56,3.05-2.3,4.44-4.09,5.98C503.48,810.62,503.48,810.62,507.62,807.76z"/>
	<path class="st2" d="M316.28,806.44c-0.17-1.78-0.58-3.54,0.71-5.91C318.78,803.1,318.13,804.79,316.28,806.44z"/>
	<path class="st2" d="M806.29,479.48c2.57,0,5.13,0,7.7,0c0,0.16,0,0.33,0,0.49c-2.57,0-5.13,0-7.7,0   C806.29,479.8,806.29,479.64,806.29,479.48z"/>
	<path class="st2" d="M1060.91,594.91c-0.34-0.43-1.11-1.04-1.01-1.34c0.29-0.82,0.8-1.76,1.5-2.18c0.63-0.38,0.99,0.45,1.06,1.13   C1062.58,593.61,1062.03,594.3,1060.91,594.91z"/>
	<path class="st2" d="M444.39,1025.14c1.11,0.71,2.35,1.29,2.39,2.81c0.01,0.23-0.76,0.76-0.99,0.67   C444.15,1028,443.58,1026.85,444.39,1025.14z"/>
	<path class="st2" d="M1026.12,778.3c0.65,0.52,1.52,0.99,1.26,1.93c-0.16,0.56-0.79,1.37-1.23,1.38c-0.8,0.02-1.46-0.68-1.48-1.58   C1024.64,779.1,1025.37,778.66,1026.12,778.3z"/>
	<path class="st2" d="M698.29,893.9c-1.74-0.36-2.74-1.21-2.97-2.77c-0.04-0.24,0.87-0.94,1.04-0.85   C697.7,891,698.16,892.25,698.29,893.9z"/>
	<path class="st2" d="M640.7,1003.42c-1.51-0.39-2.92-0.58-3.47-2.1c-0.08-0.21,0.68-1.05,0.89-1   C639.55,1000.7,640.59,1001.54,640.7,1003.42z"/>
	<path class="st2" d="M719.14,669.75c0.63-1.52,1.65-2.01,3.11-1.3c0.2,0.1,0.4,0.64,0.31,0.8   C721.63,670.77,720.36,670,719.14,669.75z"/>
	<path class="st2" d="M414.2,965.91c-0.95-0.51-1.91-1.02-2.86-1.52c0.43-0.45,0.8-1.19,1.31-1.31   C414.49,962.63,413.67,964.88,414.2,965.91z"/>
	<path class="st2" d="M260.51,805.66c0.66-1.64,1.75-1.84,2.94-1.47c0.26,0.08,0.58,1.05,0.45,1.18   C262.97,806.29,261.84,806.06,260.51,805.66z"/>
	<path class="st2" d="M431.51,702.79c0.3-1.74,1.49-1.83,2.79-1.51c0.25,0.06,0.59,1.04,0.46,1.17   C433.84,703.38,432.71,703.15,431.51,702.79z"/>
	<path class="st2" d="M1041.46,801.76c-0.23,1.19-0.85,1.36-1.47,0.96c-0.46-0.3-0.99-0.93-0.96-1.39c0.03-0.52,0.59-1.26,1.36-0.8   C1040.88,800.83,1041.19,801.44,1041.46,801.76z"/>
	<path class="st2" d="M344.99,785.64c1.79-0.75,2.76-2.15,4.51-1.33C348.47,785.49,347.37,786.29,344.99,785.64z"/>
	<path class="st2" d="M523.71,924.98c-0.34-0.16-0.85-0.4-1.36-0.63c0.36-0.75,0.85-1.51,1.76-1.28c0.51,0.13,1.24,0.78,1.26,1.21   C525.4,925.16,524.47,924.74,523.71,924.98z"/>
	<path class="st2" d="M1112.04,495.3c-0.46-0.62-0.84-1.13-1.23-1.64c0.46-0.13,0.93-0.34,1.39-0.36c0.79-0.03,1.26,0.46,1.07,1.21   C1113.19,494.83,1112.57,494.99,1112.04,495.3z"/>
	<path class="st2" d="M1210.57,632.24c0.93,1.28,1.79,2.12,1.67,3.59C1210.25,635.17,1210.34,633.96,1210.57,632.24z"/>
	<path class="st2" d="M1157.9,768.04c0.87,0.1,1.54,0.32,1.33,1.17c-0.07,0.3-0.86,0.76-1.04,0.65c-0.53-0.31-0.93-0.86-1.38-1.32   C1157.22,768.35,1157.62,768.17,1157.9,768.04z"/>
	<path class="st2" d="M1065.89,1049.17c-6.19,5.71-13.94,6.08-22.93,6.85C1050.31,1049.7,1058.23,1049.88,1065.89,1049.17z"/>
	<path class="st2" d="M988.08,1120.25c-0.37,1.95-2.4,2.72-4.1,3.19c-1.8,0.49-3.09-1.25-3.26-2.83c-0.27-2.48,2.05-2.46,3.68-2.82   C986.15,1117.41,987.65,1117.81,988.08,1120.25z"/>
	<path class="st2" d="M1079.42,1018.57c2.51-1.61,5.79-3.31,7.19-0.7c2.34,4.37-1.95,2.95-4.02,3.25   C1082.42,1019.32,1080.21,1020.32,1079.42,1018.57z"/>
	<path class="st1" d="M719.13,583.17c-7.24-1.24-13.83-2.14-20.3-3.57c-3.44-0.76-5.92-0.35-8.38,2.34   c-4.71,5.14-9.72,10-15.11,15.5c-2.16-7.05-2.56-13.66-3.34-20.13c-0.39-3.29-1.11-5.64-4.14-7.14   c-6.6-3.25-13.16-6.58-20.48-10.26c7.09-3.51,13.42-6.72,19.83-9.78c3.18-1.52,4.34-3.83,4.73-7.33c0.72-6.4,1.2-12.89,3.18-20.01   c5.53,5.61,10.56,10.65,15.51,15.77c1.81,1.87,3.26,2.64,6.34,1.92c5.52-1.29,11.28-1.7,16.83-3.15c1.19-0.31,2.85-0.69,3.72,0.51   c0.93,1.28-0.32,2.55-0.88,3.65c-2.78,5.39-5.74,10.68-8.56,16.05c-0.72,1.37-1.5,2.59-0.41,4.49   C711.5,568.68,715.01,575.51,719.13,583.17z"/>
	<path class="st1" d="M589.56,607.42c3.57-1.83,6.31-3.9,9.39-4.68c7.55-1.91,8.43-7.74,8.84-13.87c0.17-2.48,0.4-4.85,1.92-8.11   c3.66,3.91,7.16,7.62,10.61,11.37c1.44,1.56,2.64,2.14,5.1,1.41c4.47-1.33,9.23-1.69,14.46-2.55c-2.18,4.36-3.8,8.34-6.07,11.9   c-2.43,3.8-1.81,7.05,0.64,10.3c2.2,2.92,3.52,6.24,5.01,9.58c-3.85,1.26-7.52-0.14-10.74-1c-4.9-1.31-8.24-0.47-11.33,3.27   c-1.58,1.91-3.55,3.5-5.17,5.39c-0.8,0.93-0.98,2.94-2.58,2.32c-0.84-0.33-1.32-2.1-1.55-3.29c-0.3-1.61-0.2-3.3-0.28-4.95   c-0.3-6.48-3.08-10.91-9.68-12.79C595.36,610.92,592.87,609.12,589.56,607.42z"/>
	<path class="st1" d="M744.51,555.43c3.99-2.04,7.47-4.28,11.27-5.63c4.29-1.52,5.44-4.7,5.93-8.54c0.46-3.56,0.83-7.13,1.29-11.05   c3.39,1.13,5.48,3.71,7.11,6.09c4.19,6.13,9.74,6.48,15.96,4.67c2.47-0.72,6.41-2.02,7.14-0.93c1.62,2.4-1.99,4.35-2.76,6.79   c-0.05,0.15-0.18,0.28-0.27,0.42c-4.43,6.19-4.31,12.15,0.91,17.85c0.11,0.12,0.25,0.25,0.29,0.4c0.6,2.01,3.12,3.87,2.01,5.79   c-1.13,1.95-3.39-0.88-5.34-0.19c-0.76,0.27-1.86-0.41-2.81-0.65c-5.68-1.44-10.89-1.62-14.59,4.21c-1.67,2.64-3.95,4.88-6.18,7.58   c-2.87-3.19-0.45-6.35-2.77-8.52c1.72,1.64,3.53,2.28,5.34,1.25c1.21-0.69,0.63-1.94,0.01-3.04c-0.52-0.93-0.7-1.57-2.03-0.9   c-2.52,1.26-3.52,0-3.63-2.53c-0.17-3.75-2.69-5.48-5.81-6.96C751.97,559.79,748.09,558.43,744.51,555.43z"/>
	<path class="st1" d="M343,684.04c0.38,0.52,0.66,1.17,1.15,1.55c1.85,1.42,5.56,1.36,5.64,3.86c0.12,3.79-0.39,8-2.05,11.32   c-1.35,2.71-5.49,1.6-8.36,2.08c-1.97,0.33-0.7-1.42-0.54-2.4c0.21-1.29,0.21-2.62,0.22-3.93c0.03-3.11,1.32-6.03,1.17-9.21   c-0.06-1.3,0.52-3.37,2.84-3.2C343.08,684.11,343,684.04,343,684.04z"/>
	<path class="st1" d="M869.08,670.62c1.55,2.16,4.24,4.11,0.61,7.84C870.61,675.18,866.61,673.46,869.08,670.62z"/>
	<path class="st1" d="M849.48,707.6c-2.9-0.49-3.68-2.31-3.76-4.88C847.74,703.84,849.29,705.08,849.48,707.6z"/>
	<path class="st1" d="M833.99,776.63c-0.49-0.42-1.45-0.84-1.16-1.8c0.26-0.86,0.9-1.61,1.37-2.41c0.7,0.67,1.39,1.34,2.09,2.02   C835.53,775.16,834.77,775.89,833.99,776.63z"/>
	<path class="st1" d="M817.5,750.93c0.18,1.69,0.3,2.8,0.41,3.92c-0.59-0.05-1.47,0.13-1.73-0.2   C815.15,753.38,815.84,752.34,817.5,750.93z"/>
	<path class="st1" d="M865.22,661.17c0.5,0.11,1.32,0.02,1.25,0.93c-0.08,1.06-0.77,1.73-1.81,1.84c-0.92,0.1-0.9-0.72-0.94-1.32   C863.66,661.66,864.16,661.15,865.22,661.17z"/>
	<path class="st1" d="M888.66,766.78c-0.14,1.56-0.37,2.24-1.16,2.06c-0.96-0.22-1.76-0.84-1.66-1.96c0.07-0.83,0.85-0.79,1.46-0.78   C888.3,766.11,888.67,766.72,888.66,766.78z"/>
	<path class="st1" d="M838.35,787.06c1.49-0.03,0.52,0.97,0.65,1.57c0.13,0.6,0.57,1.34-0.48,1.21c-1-0.12-1.74-0.88-1.68-1.98   C836.89,787.06,837.65,787.03,838.35,787.06z"/>
	<path class="st1" d="M883.44,742.15c0.75,0.02,1.13,0.39,1.15,1.15c0.02,0.83-0.04,1.73-1.13,1.58c-0.52-0.07-1.25-0.67-1.36-1.15   C881.9,742.86,882.77,742.51,883.44,742.15z"/>
	<path class="st1" d="M840.81,788.43c0.07-1.42,0.69-0.79,1.27-0.74c0.67,0.05,1.66-0.77,1.53,0.73c-0.04,0.42,0.34,1.56-0.89,1.03   C842.02,789.16,841.37,788.74,840.81,788.43z"/>
	<path class="st1" d="M812.18,733.17c0.15,1.88,2.56,1.32,2.21,3.2c-0.08,0.45-0.38,0.26-0.76,0.1   C812.36,735.95,811.21,735.45,812.18,733.17z"/>
	<path class="st1" d="M838.69,688.42c2.35-0.41,2.79,1.21,3.93,2.39C840.38,691.19,839.93,689.6,838.69,688.42z"/>
	<path class="st1" d="M798.85,716.88c0.67,0.7,1.38,1.17,1.65,1.81c0.25,0.59-0.07,1.26-0.95,0.68c-0.6-0.39-1.75-0.2-1.64-1.35   C797.94,717.69,798.4,717.4,798.85,716.88z"/>
	<path class="st1" d="M873.81,685.01c-0.47,0.4-0.77,0.88-1.11,0.91c-0.92,0.09-1.55-0.57-1.61-1.37c-0.03-0.32,0.93-1.06,1.29-0.98   C872.89,683.69,873.25,684.4,873.81,685.01z"/>
	<path class="st1" d="M874.88,701.04c-0.6,0.63-0.95,1.22-1.47,1.48c-0.74,0.37-0.64-0.42-0.69-0.79c-0.09-0.66-0.06-1.41,0.82-1.46   C873.89,700.25,874.26,700.66,874.88,701.04z"/>
	<path class="st1" d="M874.91,688.89c0.65,1.19-0.19,1.05-0.51,1.11c-0.65,0.13-1.39,0.08-1.55-0.72c-0.06-0.3,0.49-1.02,0.66-0.99   C874.09,688.4,874.63,688.75,874.91,688.89z"/>
	<path class="st1" d="M888.79,774.39c-0.06-1.05,0.52-1.33,1.21-1.3c0.42,0.02,0.83,0.3,1.25,0.46c-0.45,0.45-0.85,1.02-1.39,1.31   C889.65,774.98,889.11,774.54,888.79,774.39z"/>
	<path class="st1" d="M815.68,740.59c-1.55-0.08-1.98-1.14-2.98-2.38C814.67,738.22,815.4,738.9,815.68,740.59z"/>
	<path class="st1" d="M834.34,766.57c-1.08-0.32-2.16-0.65-3.5-1.05C832.4,764.81,833.54,764.89,834.34,766.57z"/>
	<path class="st1" d="M630.36,774.93c-0.4,0.97,0.67,1.8-0.53,1.96c-0.56,0.07-1.69-0.37-1.68-0.44c0.45-2.95-4.15-3.67-3-6.83   c0.09-0.23,1.07-0.45,1.17-0.31C627.77,771.23,629.14,773.21,630.36,774.93z"/>
	<path class="st1" d="M632.08,859.32c-0.33-2.35,0.77-3.46,2.71-3.72c2.28-0.3-0.89,2.81,1.5,2.62c-0.25,1.79-1.74,2.49-2.98,3.4   C632.9,860.86,632.49,860.09,632.08,859.32z"/>
	<path class="st1" d="M676.85,811.33c5.14-1.15,3.82,3.08,4.76,5.22C680.13,814.92,678.64,813.28,676.85,811.33z"/>
	<path class="st1" d="M606.9,735.67c1.32,2.09,1.31,3.53-0.1,4.81c-0.49,0.44-1.25,0.79-1.62-0.03   C604.36,738.65,605.72,737.49,606.9,735.67z"/>
	<path class="st1" d="M675.31,795.26c1.65,1.39,2.58,2.95,2.37,5.18C675,798.54,675,798.54,675.31,795.26z"/>
	<path class="st1" d="M633.69,845.21c1.49,1.22,2.46,2.66,2.61,5.11C634.31,848.77,633.9,847.02,633.69,845.21z"/>
	<path class="st1" d="M666.7,786.21c1.69-0.19,2.8-0.31,3.92-0.43c-0.05,0.6,0.14,1.47-0.18,1.74   C669.17,788.56,668.13,787.86,666.7,786.21z"/>
	<path class="st1" d="M681.43,827.64c-1.22,0.22-2.5,1.01-3.41-0.52c-0.09-0.16,0.12-0.7,0.32-0.8   C679.79,825.63,680.82,826.09,681.43,827.64z"/>
	<path class="st1" d="M688.3,839.95c-0.57-0.15-1.35,0-1.35-0.94c-0.01-0.94,0.74-1.68,1.36-1.68c0.62,0,1.37,0.75,1.36,1.69   C689.64,839.95,688.87,839.8,688.3,839.95z"/>
	<path class="st1" d="M628.25,842.29c1.48-0.69,2.54-0.21,3.23,1.08c0.09,0.18-0.48,1.03-0.78,1.05   C629.24,844.52,628.76,843.39,628.25,842.29z"/>
	<path class="st1" d="M630.88,851.99c0.01-0.97-1.92-1.76-0.35-2.81c0.63-0.42,1.81-0.44,2.06,0.4c0.4,1.32-0.66,1.96-1.79,2.34   L630.88,851.99z"/>
	<path class="st1" d="M668.22,782.83c-0.48-0.56-1.07-0.96-1.02-1.25c0.12-0.77,0.67-1.39,1.53-1.42c0.33-0.01,1.08-0.03,0.58,0.76   C668.95,781.5,668.64,782.1,668.22,782.83z"/>
	<path class="st1" d="M635.57,863.58c0.61-2.68,1.17-3.51,2.54-3.47C638.42,861.7,637.08,861.92,635.57,863.58z"/>
	<path class="st1" d="M630.81,851.92c-0.15,0.88-0.3,1.76-0.45,2.65c-0.46-0.41-1.21-0.77-1.31-1.25c-0.29-1.49,0.91-1.29,1.83-1.33   C630.88,851.99,630.81,851.92,630.81,851.92z"/>
	<path class="st1" d="M734.28,686.64c0.8,3.26,0.85,5.28-1.87,6.18c-0.74,0.25-1.36,0.14-1.51-0.65   C730.4,689.6,732.89,689.08,734.28,686.64z"/>
	<path class="st1" d="M739.6,686.05c-0.04,0.88-0.61,1.45-1.34,1.76c-1.07,0.45-1.38-0.27-1.44-1.17c-0.06-0.95,0.39-1.51,1.36-1.49   C738.78,685.16,739.48,685.16,739.6,686.05z"/>
	<path class="st1" d="M732,797.15c-2.02,1.32-3.15-0.57-4.56-0.67C728.93,796.02,730.44,795.52,732,797.15z"/>
	<path class="st1" d="M753.21,821.88c1.36-2.15,2.53-2.65,4.32-2.72C756.71,821.05,755.31,821.12,753.21,821.88z"/>
	<path class="st1" d="M724.34,775.06c0.57,0.78,1.05,1.25,1.25,1.81c0.08,0.22-0.43,0.89-0.74,0.95c-0.95,0.18-1.01-0.63-1.01-1.27   C723.84,776.17,724.08,775.79,724.34,775.06z"/>
	<path class="st1" d="M745.55,823.72c1.19-0.65,1.05,0.19,1.11,0.51c0.13,0.65,0.08,1.39-0.72,1.55c-0.3,0.06-1.02-0.49-0.99-0.66   C745.06,824.54,745.42,824,745.55,823.72z"/>
	<path class="st1" d="M771.53,815.59c-0.29-0.67-0.57-1.07-0.63-1.51c-0.12-0.95,0.65-1.04,1.29-1.01c0.38,0.01,0.74,0.34,1.11,0.53   C772.89,814.06,772.47,814.53,771.53,815.59z"/>
	<path class="st2" d="M699.38,558.06c-1.2-1.34-3.14-1.8-2.87-3.91c0.04-0.33,1.15-0.9,1.52-0.75   C700.14,554.23,700.03,555.92,699.38,558.06z"/>
</g>
</svg>