<svg  viewBox="0 0 32 32" fill="none" xmlns="http://www.w3.org/2000/svg">
<g clip-path="url(#clip0_1_849)">
<path d="M27.8797 31C27.0878 30.7892 26.5224 30.2574 25.965 29.6959C24.2962 28.0149 22.6102 26.351 20.9403 24.671C20.7449 24.4739 20.6047 24.4522 20.3645 24.5977C18.7877 25.5511 17.0672 26.0954 15.2352 26.2524C12.8953 26.4541 10.6668 26.0198 8.57624 24.9392C6.36731 23.7967 4.66406 22.1305 3.4642 19.9578C2.89071 18.9196 2.49076 17.8161 2.24711 16.6564C2.15976 16.2405 2.32066 15.9253 2.6551 15.8417C3.01598 15.7523 3.31365 15.9437 3.41134 16.3745C3.63085 17.3337 3.93311 18.263 4.39168 19.1362C5.62027 21.4773 7.44879 23.179 9.88183 24.2287C11.4529 24.9071 13.101 25.1902 14.8031 25.0882C16.7442 24.9724 18.5394 24.3788 20.1726 23.312C20.7587 22.9292 20.9242 22.9567 21.423 23.4541C23.3745 25.3999 25.3283 27.3434 27.2763 29.2926C27.6533 29.6696 28.0774 29.8736 28.621 29.806C29.1715 29.7372 29.5565 29.4358 29.7599 28.9454C29.9714 28.4366 29.9151 27.9278 29.5657 27.4786C29.4738 27.3594 29.3623 27.2551 29.2554 27.1485C27.3246 25.2222 25.3926 23.2959 23.4618 21.3696C22.9929 20.9009 22.9711 20.713 23.3343 20.1664C24.0732 19.0549 24.5858 17.8482 24.8709 16.5453C24.8892 16.4628 24.9065 16.3791 24.9283 16.2978C25.034 15.9196 25.3363 15.7099 25.657 15.789C26.0029 15.8738 26.1776 16.1935 26.0948 16.5831C25.8098 17.9307 25.3306 19.2038 24.61 20.3795C24.4789 20.5927 24.5134 20.7176 24.6824 20.8849C26.458 22.6462 28.2245 24.4167 30.0001 26.1779C30.4346 26.6088 30.8104 27.0706 30.9977 27.6631V29.0771C30.8069 29.6535 30.4966 30.1451 30.0001 30.513C29.6841 30.7479 29.3151 30.8636 28.9554 30.9989H27.8774L27.8797 31Z" fill="white"/>
<path d="M14.1549 23.6683C8.95895 23.7153 4.60429 19.4387 4.60889 14.1697C4.61349 8.887 8.90033 4.61498 14.1859 4.63103C19.5324 4.64707 23.7193 9.01993 23.7158 14.1881C23.7135 19.3539 19.4002 23.7325 14.1537 23.6695L14.1549 23.6683ZM6.66497 17.8103C6.69945 17.7943 6.72128 17.792 6.73163 17.7794C6.76151 17.7427 6.79024 17.7049 6.81323 17.6648C7.67864 16.1086 9.00607 15.2102 10.7576 14.9272C10.9886 14.8894 10.9748 14.8023 10.8989 14.6247C10.1944 12.9768 10.2772 11.3691 11.2299 9.84271C12.593 7.65857 15.3996 7.53366 16.9247 9.60435C18.0602 11.1468 18.1475 12.8382 17.4476 14.5868C17.3579 14.8103 17.3625 14.8928 17.6257 14.9375C19.2738 15.216 20.5541 16.0456 21.4149 17.4929C21.4747 17.5938 21.5057 17.7714 21.6333 17.7611C21.7735 17.7496 21.7885 17.5651 21.8379 17.4494C22.4481 16.0216 22.6366 14.5399 22.4252 13.0009C22.2137 11.4585 21.6287 10.0707 20.6219 8.88929C18.6463 6.57223 16.119 5.55923 13.086 5.91447C10.8288 6.17918 8.99687 7.25749 7.59589 9.03254C6.0478 10.9955 5.55131 13.2358 5.95471 15.6824C6.07768 16.4261 6.31329 17.1377 6.66612 17.8092L6.66497 17.8103ZM14.2434 22.4892C14.4824 22.4387 14.7881 22.4697 15.087 22.433C17.2177 22.1695 19.0049 21.2424 20.4415 19.6484C20.9391 19.0972 20.946 19.0938 20.5852 18.4521C20.1703 17.7118 19.6738 17.0368 18.9026 16.6243C18.2624 16.2817 17.5648 16.1201 16.8488 16.025C16.6465 15.9986 16.4822 15.9895 16.3018 16.1361C14.941 17.2454 13.3423 17.2294 11.9816 16.1086C11.9011 16.0422 11.8253 15.9688 11.7069 15.986C10.9484 16.0949 10.1933 16.2232 9.50371 16.5785C8.49923 17.0964 7.95102 18.0074 7.46372 18.9677C7.40051 19.0926 7.49246 19.1614 7.55452 19.2393C9.24742 21.3696 11.4724 22.4227 14.2422 22.4892H14.2434ZM11.6644 12.4864C11.6506 13.3779 11.8896 14.1205 12.4011 14.8183C13.2171 15.9299 14.6709 16.0594 15.657 15.1071C16.9017 13.905 17.0235 11.5799 15.911 10.2403C14.8445 8.95576 13.1918 9.05087 12.27 10.4466C11.8529 11.078 11.654 11.7713 11.6644 12.4864Z" fill="white"/>
<path d="M2.2264 11.7988C2.32179 11.1926 2.49878 10.5463 2.74933 9.92639C4.42729 5.77469 7.43038 3.12187 11.8482 2.25326C15.688 1.49809 19.16 2.44119 22.1436 4.99431C24.1721 6.72925 25.4593 8.92714 26.0523 11.5273C26.1523 11.9661 26.0799 12.2171 25.8006 12.3718C25.4305 12.5792 25.0317 12.3936 24.918 11.9341C24.7456 11.2385 24.5513 10.5509 24.2686 9.89087C23.3561 7.76517 21.9057 6.09784 19.9496 4.86368C18.5026 3.95037 16.9166 3.41752 15.2191 3.26626C13.2688 3.09322 11.3816 3.38199 9.59219 4.21279C7.37751 5.24184 5.68576 6.82665 4.50774 8.95464C4.02159 9.83242 3.67565 10.7686 3.45959 11.7496C3.43545 11.8596 3.41017 11.9707 3.37224 12.0761C3.26306 12.3718 2.98033 12.546 2.71255 12.4921C2.41029 12.4314 2.2218 12.1839 2.2264 11.7988Z" fill="white"/>
<path d="M26.3154 14.1193C26.3143 14.4448 26.0373 14.7175 25.719 14.7095C25.4006 14.7015 25.134 14.4173 25.142 14.0941C25.1501 13.7893 25.427 13.5189 25.7305 13.5189C26.0557 13.5189 26.3166 13.7882 26.3154 14.1205V14.1193Z" fill="white"/>
<path d="M3.16883 14.1652C3.16424 14.4987 2.90105 14.7496 2.56776 14.7416C2.23561 14.7336 1.99081 14.4689 2.00001 14.132C2.0092 13.8145 2.26664 13.5659 2.58614 13.567C2.91714 13.5682 3.17228 13.8306 3.16768 14.1652H3.16883Z" fill="white"/>
</g>
<defs>
<clipPath id="clip0_1_849">
<rect width="29" height="29" fill="white" transform="translate(2 2)"/>
</clipPath>
</defs>
</svg>
