<svg width="104" height="37" viewBox="0 0 104 37" fill="none" xmlns="http://www.w3.org/2000/svg">
<g clip-path="url(#clip0_1_872)">
<path d="M2.59444e-05 22.8646C0.0992413 22.8133 0.108653 22.7213 0.109829 22.6257C0.111006 22.4956 0.112967 22.3655 0.112575 22.2354C0.109045 21.4643 0.159633 20.6957 0.21728 19.9274C0.263947 19.3075 0.283554 18.6852 0.344731 18.0669C0.408652 17.4206 0.436103 16.7715 0.536887 16.1279C0.624337 15.5694 0.658455 15.0027 0.726298 14.4406C0.799631 13.8324 0.87963 13.2245 0.965905 12.6178C1.16002 11.2475 1.38786 9.88221 1.63492 8.52004C1.77414 7.75214 1.92904 6.98696 2.08512 6.22218C2.21257 5.59916 2.39061 4.99207 2.77609 4.47004C3.13178 3.98801 3.59099 3.6264 4.14079 3.38131C4.70432 3.13001 5.30903 3.04106 5.91334 2.95833C6.48039 2.88064 7.05137 2.85773 7.62313 2.83054C8.05411 2.81034 8.4847 2.79364 8.91607 2.78975C9.03842 2.78859 9.15921 2.79869 9.27881 2.82743C9.76117 2.9424 10.0529 3.28498 10.0827 3.77711C10.0984 4.03851 10.0718 4.29603 10.0161 4.55199C9.77293 5.66907 9.5643 6.79276 9.34156 7.91411C9.02666 9.5004 8.76705 11.0956 8.52078 12.6932C8.33254 13.9136 8.18235 15.1398 8.04902 16.3676C7.9596 17.1887 7.88902 18.0113 7.82235 18.8348C7.73529 19.9084 7.69568 20.9835 7.64509 22.0586C7.5847 23.3505 7.59372 24.6412 7.61921 25.9315C7.63176 26.5693 7.6298 27.2117 7.70274 27.8499C7.74274 28.1991 7.74117 28.5533 7.76627 28.9056C7.80431 29.4432 7.87137 29.9768 7.92078 30.5129C7.96 30.9382 8.00431 31.3627 8.05686 31.7861C8.0647 31.8478 8.04941 31.9201 8.12784 31.9566C8.23882 31.9345 8.25764 31.8319 8.29646 31.7531C8.71411 30.9106 9.15136 30.0778 9.55685 29.2291C10.0459 28.2049 10.5604 27.1923 11.0612 26.1735C11.8616 24.5445 12.6435 22.9069 13.4062 21.2604C13.9149 20.1628 14.44 19.0725 14.9451 17.9733C15.4815 16.8065 16.0055 15.6342 16.5313 14.4628C17.0651 13.2746 17.6011 12.0872 18.1247 10.8944C18.5698 9.88066 18.9929 8.85718 19.4356 7.84264C19.6847 7.27206 19.9094 6.68905 20.2407 6.15692C20.3192 6.03069 20.4039 5.90639 20.4984 5.7922C20.7396 5.50128 21.0517 5.33154 21.4254 5.25347C22.2929 5.07208 23.1678 4.97731 24.0537 5.02664C24.5776 5.05577 25.1019 5.10199 25.6176 5.20453C26.1246 5.30552 26.4035 5.63683 26.4788 6.14294C26.5317 6.49795 26.4737 6.84636 26.4807 7.1971C26.4991 8.10832 26.4262 9.01643 26.4035 9.9261C26.3803 10.8532 26.338 11.7812 26.2913 12.7079C26.2623 13.2839 26.2764 13.8596 26.2442 14.434C26.1399 16.2914 26.1948 18.1496 26.2078 20.0074C26.2125 20.6541 26.2207 21.3063 26.294 21.9534C26.3286 22.2571 26.3333 22.5647 26.3493 22.87C26.4223 24.2718 26.5835 25.6639 26.8187 27.0466C26.9999 28.1101 27.236 29.1635 27.6654 30.1617C27.8795 30.6589 28.1282 31.1339 28.5321 31.5177C29.1305 32.0863 29.9093 32.0991 30.5258 31.5468C31.043 31.0834 31.4089 30.5144 31.7297 29.9124C32.2485 28.9378 32.6038 27.8984 32.9297 26.8497C33.3658 25.4452 33.7026 24.0155 33.9815 22.5733C34.2375 21.2507 34.4532 19.9208 34.6293 18.5854C34.7348 17.7849 34.8289 16.9824 34.9101 16.1788C34.9689 15.5973 34.9975 15.0132 35.0415 14.4302C35.0909 13.7733 35.1426 13.1165 35.1932 12.4597C35.1952 12.4318 35.2011 12.4042 35.2003 12.3766C35.1807 11.7536 35.2858 11.1348 35.2642 10.5118C35.2324 9.601 35.3552 8.69288 35.3148 7.78244C35.2724 6.82655 35.2948 5.86872 35.2493 4.914C35.2113 4.11774 35.1858 3.31955 35.1058 2.52486C35.0744 2.21179 35.0709 1.89096 35.1022 1.57829C35.1611 0.995667 35.3854 0.498496 35.9681 0.240977C36.1677 0.152807 36.3822 0.122511 36.5991 0.115131C36.7493 0.110081 36.8999 0.0840577 37.0473 0.0844461C37.9654 0.0863882 38.8807 -0.0565484 39.8011 0.0405552C40.136 0.075901 40.4756 0.064637 40.8101 0.115131C41.2112 0.175724 41.5983 0.277877 41.9681 0.447614C42.5199 0.701249 42.8732 1.12773 43.0818 1.68122C43.2273 2.0673 43.3054 2.47048 43.314 2.88064C43.3265 3.50288 43.3426 4.12746 43.3073 4.74814C43.2681 5.43292 43.2175 6.11808 43.1681 6.80286C43.0905 7.87838 42.9399 8.94458 42.7956 10.0108C42.6748 10.903 42.5238 11.7917 42.3583 12.678C42.0136 14.5249 41.6046 16.3571 41.1195 18.1718C40.6512 19.9235 40.1226 21.6578 39.5038 23.3649C39.2313 24.1172 38.9477 24.8649 38.6414 25.6041C38.2677 26.5067 37.8709 27.3989 37.4391 28.2768C36.8132 29.5484 36.1262 30.7832 35.3207 31.9519C34.8395 32.6507 34.3109 33.3118 33.7454 33.948C33.0697 34.7081 32.3081 35.3603 31.4501 35.9033C30.6007 36.4408 29.6811 36.8106 28.6717 36.9038C28.1689 36.9504 27.6607 36.9407 27.154 36.8867C26.7791 36.8471 26.4117 36.7815 26.0478 36.689C24.9968 36.423 24.0929 35.9072 23.3113 35.1606C22.4862 34.3729 21.8948 33.438 21.429 32.4107C20.6847 30.7684 20.2792 29.0361 19.9878 27.2704C19.8349 26.3444 19.7031 25.4153 19.6223 24.4816C19.5745 23.9273 19.5176 23.373 19.4796 22.8172C19.4251 22.0213 19.4113 21.2228 19.3325 20.4284C19.3168 20.2719 19.3282 20.1127 19.3211 19.955C19.318 19.8854 19.3427 19.8039 19.2635 19.7553C19.1796 19.7716 19.1729 19.8443 19.1462 19.9006C18.5043 21.2546 17.8604 22.6075 17.2207 23.9626C16.5415 25.4017 15.8443 26.8326 15.1427 28.2616C14.3592 29.8576 13.5357 31.4322 12.667 32.9843C12.3031 33.6345 11.9368 34.2832 11.547 34.9183C11.1929 35.4954 10.7572 36.0012 10.1878 36.3834C9.62038 36.764 8.98431 36.9481 8.30705 36.9745C6.65451 37.039 5.03138 36.8017 3.42276 36.4591C2.82119 36.3309 2.26198 36.0971 1.82472 35.6345C1.57492 35.37 1.40982 35.0631 1.28277 34.7307C1.07296 34.1807 0.960022 33.6062 0.84316 33.0317C0.663553 32.1477 0.541985 31.2547 0.420417 30.3625C0.355319 29.8848 0.332966 29.4016 0.27728 28.9223C0.201202 28.267 0.180417 27.6083 0.130614 26.9515C0.100418 26.5537 0.116888 26.1529 0.109829 25.7532C0.107477 25.6359 0.134927 25.5054 -0.000366211 25.4312V22.8661L2.59444e-05 22.8646Z" fill="white"/>
<path d="M86.5542 30.9543C86.4264 30.9932 86.3876 31.0716 86.3429 31.1404C85.6303 32.233 84.7613 33.1963 83.7923 34.0651C82.279 35.4223 80.5621 36.4259 78.5354 36.8275C77.3939 37.0536 76.2417 37.0319 75.09 36.8808C74.1649 36.7592 73.3045 36.4632 72.5072 35.9812C71.7684 35.5345 71.2029 34.9255 70.781 34.1844C70.228 33.2126 69.9657 32.1553 69.8453 31.0534C69.7527 30.209 69.7723 29.3626 69.8068 28.5197C69.8351 27.8264 69.91 27.1331 69.9982 26.4413C70.1072 25.5845 70.2194 24.7284 70.3578 23.8759C70.4857 23.0874 70.6316 22.3016 70.7688 21.5147C70.7861 21.4164 70.8347 21.3185 70.7708 21.2043C70.6363 21.23 70.5488 21.3306 70.4512 21.4106C69.1723 22.4585 67.7378 23.2023 66.1159 23.5721C65.8998 23.6214 65.7924 23.7135 65.7484 23.9232C65.6084 24.5874 65.4296 25.2427 65.2265 25.8906C64.7441 27.4306 64.1355 28.9163 63.3163 30.3154C62.8249 31.1544 62.2673 31.9463 61.6332 32.682C60.7881 33.6624 59.8167 34.5037 58.7088 35.188C57.7547 35.778 56.7363 36.2247 55.6571 36.5316C54.9712 36.7266 54.2708 36.8516 53.5587 36.9262C52.7336 37.0128 51.9073 36.993 51.0838 36.965C50.3257 36.9394 49.5744 36.8229 48.8344 36.6333C48.1305 36.4527 47.4505 36.2173 46.8093 35.8829C45.4807 35.1896 44.4356 34.2046 43.7066 32.8968C43.0583 31.7339 42.6905 30.4871 42.5175 29.1742C42.3881 28.195 42.336 27.2135 42.3693 26.2285C42.3846 25.7744 42.4364 25.3215 42.4838 24.8694C42.5595 24.1485 42.6756 23.4338 42.8313 22.7254C43.1034 21.4859 43.5011 20.2881 44.0219 19.1294C44.6399 17.7541 45.432 16.4855 46.4093 15.3335C46.9893 14.6498 47.6261 14.0218 48.3277 13.4559C49.3685 12.6157 50.5018 11.9306 51.743 11.4291C52.5512 11.1025 53.3877 10.8616 54.2489 10.6931C55.3332 10.481 56.4238 10.3944 57.523 10.4355C59.01 10.4911 60.4465 10.777 61.7833 11.4567C62.4308 11.7857 63.0179 12.2044 63.541 12.7008C64.0853 13.2178 64.523 13.8202 64.8841 14.4786C65.4841 15.5712 65.8151 16.7469 66.0006 17.9677C66.0547 18.3254 66.0735 18.6878 66.1218 19.0467C66.1539 19.2848 66.1641 19.2825 66.4131 19.251C66.8755 19.1927 67.3045 19.0226 67.7241 18.8389C68.7021 18.4105 69.5653 17.8096 70.3629 17.1042C70.7916 16.7251 71.1755 16.308 71.5696 15.8978C71.7712 15.6881 71.877 15.4496 71.9241 15.1622C72.13 13.906 72.3417 12.6507 72.5712 11.3984C72.821 10.0366 73.0853 8.67758 73.3566 7.32007C73.666 5.77068 73.9876 4.22363 74.31 2.67696C74.3743 2.36817 74.4602 2.06326 74.5464 1.75913C74.6394 1.43209 74.8194 1.14699 75.03 0.883647C75.2272 0.637004 75.4872 0.469986 75.7908 0.377931C76.4217 0.186054 77.0664 0.0718606 77.7272 0.0551587C77.9896 0.0485557 78.2484 -0.0128138 78.5127 0.00583006C79.2794 0.0598197 80.048 0.10138 80.8052 0.240044C81.5884 0.383369 82.0664 0.912002 82.1911 1.68883C82.2915 2.31418 82.2186 2.93215 82.1648 3.54934C82.0986 4.30791 81.9613 5.05872 81.808 5.80525C81.5947 6.84309 81.3472 7.87278 81.0621 8.89392C80.6194 10.4806 80.106 12.0451 79.4758 13.5677C79.1174 14.4343 78.9092 15.3369 78.6782 16.2361C78.3637 17.4608 78.0954 18.696 77.8405 19.9342C77.5817 21.1904 77.37 22.4554 77.1951 23.7252C77.0813 24.5517 76.9919 25.3829 76.9362 26.2176C76.8755 27.1261 76.8104 28.0338 76.8378 28.9439C76.8598 29.6601 76.9284 30.3733 77.2131 31.0448C77.3821 31.4433 77.61 31.7991 77.9703 32.0632C78.2994 32.3041 78.6723 32.4148 79.0684 32.4559C80.1029 32.5643 81.0111 32.226 81.8429 31.6508C82.6652 31.0821 83.3476 30.374 83.9597 29.5883C84.5935 28.7749 85.1272 27.9026 85.5887 26.9878C86.0801 26.0145 86.4872 25.0046 86.804 23.9609C86.8782 23.7174 86.8789 23.4653 86.9083 23.2175C87.0138 22.3323 87.1389 21.4494 87.2633 20.5666C87.4256 19.4165 87.6217 18.2718 87.8201 17.1275C87.8582 16.9081 87.9119 16.691 87.9527 16.4719C87.9993 16.221 87.9636 16.1814 87.6982 16.1748C87.6327 16.1732 87.5656 16.1678 87.5013 16.1771C86.9519 16.2544 86.3962 16.2089 85.8448 16.2684C85.5201 16.3033 85.188 16.2886 84.8601 16.275C84.5746 16.2629 84.308 16.167 84.066 16.0159C83.7601 15.8252 83.5707 15.5646 83.5938 15.1878C83.6229 14.7062 83.6562 14.2245 83.7315 13.7472C83.7778 13.4535 83.8288 13.1603 83.8872 12.869C83.9201 12.7054 83.9637 12.5427 84.017 12.3846C84.2201 11.7818 84.686 11.4415 85.3272 11.4388C86.3597 11.4342 87.3927 11.4388 88.4252 11.4396C88.5095 11.4396 88.5938 11.4423 88.6778 11.4384C88.8919 11.4283 88.9127 11.4147 88.9538 11.2034C89.0668 10.6197 89.1738 10.0347 89.2848 9.45013C89.5346 8.13535 89.806 6.82484 90.0629 5.51161C90.217 4.72274 90.8495 4.32034 91.506 4.23916C92.2083 4.15255 92.9134 4.16769 93.6146 4.19799C94.2028 4.22363 94.7969 4.23644 95.3773 4.35607C95.7452 4.43182 96.1036 4.52737 96.4005 4.78527C96.8428 5.1698 96.9609 5.64911 96.8569 6.19716C96.7358 6.8361 96.6001 7.47233 96.4734 8.1101C96.3032 8.96695 96.1346 9.82379 95.9675 10.6814C95.9177 10.9366 95.8722 11.193 95.833 11.4501C95.8032 11.6478 95.8495 11.7126 96.0534 11.7115C96.4577 11.7092 96.8589 11.7581 97.2609 11.7806C97.8314 11.8129 98.4052 11.7942 98.9734 11.8703C99.0107 11.8754 99.0483 11.8785 99.086 11.8769C99.7248 11.8525 100.361 11.9197 100.997 11.9515C101.605 11.9818 102.218 11.962 102.822 12.0568C103.309 12.1333 103.719 12.3256 103.922 12.8134C104.022 13.0562 104.008 13.3106 103.974 13.5565C103.839 14.5376 103.284 15.1851 102.33 15.4776C101.918 15.6038 101.49 15.6531 101.056 15.6838C100.277 15.7393 99.4973 15.6908 98.7216 15.7417C98.0836 15.7836 97.4452 15.7541 96.8095 15.7961C96.3315 15.8275 95.8538 15.8368 95.3758 15.845C95.104 15.8497 95.0738 15.8737 95.0217 16.1371C94.7946 17.2856 94.5719 18.4353 94.344 19.5839C93.9605 21.5166 93.6287 23.4583 93.357 25.4089C93.2201 26.392 93.104 27.3786 93.0428 28.3714C93.0095 28.9117 92.9879 29.4473 93.0632 29.9821C93.1538 30.6257 93.3334 31.2429 93.784 31.7378C94.1762 32.1681 94.6801 32.4062 95.2656 32.4567C96.5644 32.5686 97.6781 32.1588 98.6515 31.3082C99.5016 30.5655 100.15 29.6706 100.689 28.6992C100.936 28.2537 101.371 28.1076 101.794 28.2183C102.285 28.3469 102.719 28.5621 103.088 28.9159C103.294 29.114 103.342 29.3393 103.293 29.6015C103.268 29.7394 103.21 29.8672 103.149 29.993C102.745 30.825 102.234 31.5894 101.682 32.3316C101.161 33.0304 100.578 33.6717 99.9361 34.2574C98.5448 35.5271 96.9573 36.4558 95.084 36.8307C93.8766 37.0722 92.6593 37.0478 91.4468 36.8307C90.5354 36.6675 89.6962 36.3346 88.9687 35.7617C88.3758 35.2949 87.8848 34.7383 87.5303 34.0675C87.1664 33.3784 86.9131 32.6533 86.7511 31.8947C86.6856 31.5878 86.6217 31.281 86.5535 30.9567L86.5542 30.9543ZM56.3932 14.2789C56.1489 14.256 55.8983 14.2956 55.6493 14.3422C55.5022 14.3698 55.3551 14.4055 55.2136 14.4541C54.3477 14.7497 53.6379 15.2729 53.0489 15.9557C52.4673 16.63 52.0042 17.3804 51.6187 18.1829C51.0183 19.4324 50.6057 20.7417 50.3006 22.0868C50.1465 22.7665 50.0152 23.4509 49.9238 24.1427C49.8226 24.9071 49.7238 25.6731 49.6971 26.4421C49.6744 27.0989 49.6473 27.7573 49.6736 28.4168C49.6952 28.9579 49.7446 29.4916 49.8595 30.0194C50.0277 30.7904 50.2971 31.5152 50.8152 32.1351C51.4167 32.8556 52.2144 33.1535 53.123 33.1667C53.6242 33.1737 54.0979 33.0032 54.5383 32.7511C55.1751 32.3864 55.6904 31.8896 56.1344 31.3198C56.9481 30.2746 57.5532 29.1129 58.0469 27.8913C58.3504 27.1397 58.599 26.371 58.8265 25.5934C59.0963 24.6721 59.2798 23.7333 59.4696 22.7949C59.5018 22.6368 59.4649 22.5117 59.3351 22.3979C59.1116 22.2014 58.8853 22.0095 58.6881 21.7815C58.2791 21.3088 57.9591 20.788 57.7567 20.2026C57.3747 19.0999 57.2343 17.9669 57.3343 16.8005C57.3947 16.0963 57.4685 15.396 57.6167 14.7042C57.6602 14.5015 57.6351 14.4556 57.4343 14.4013C57.0979 14.3104 56.7547 14.2599 56.3932 14.2797V14.2789Z" fill="white"/>
</g>
<defs>
<clipPath id="clip0_1_872">
<rect width="104" height="37" fill="white"/>
</clipPath>
</defs>
</svg>
